<svg xmlns="http://www.w3.org/2000/svg" viewBox="0 0 101.6 80.6"><g fill="#004275"><path d="M62 39.7c.4 1 .8 1.9 1.1 2.8.4 1 .7 2.1 1 3.1.3 1.2-.2 2.2-1.2 2.9-.8.5-1.6 1-2.5 1.4-1 .5-2.1.8-3.1 1.2-2.2-3.7-5.7-4.4-9.7-4.5.6 1.3 1.2 2.4 1.8 3.7-1.3-.7-2.7-1.3-4.2-1.5-1.5-.2-3-.1-4.5.3-.1-.5-.2-.9-.3-1.4-1.2.4-2.4.7-3.6 1.1-1.7.5-3.4 1-5.2.8-3.1-.2-5-1.7-5.9-4.7-.3-.9-.4-1.9-.7-3-2.8.6-5.7 1.2-8.6 1.8.2 3.5 2.8 5.9 6.2 6 .6 0 1.2.1 1.7.2.3.1.6.4.6.7 0 .3-.2.7-.5.8-.7.3-1.4.5-2.2.6-1.6.1-3.1.2-4.7.2-3.3.1-6.6.2-9.9-.2-1.7 0-3.5-.3-5.2-1-.6-.3-1.2-.6-1.7-1-.8-.6-.9-1.5-.2-2.3.5-.6 1-1.1 1.6-1.4 1.9-1.2 3.9-1.9 6-2.4 1.7-.5 3.5-.9 5.2-1.3.4-.1.5-.2.6-.6.7-3.7 1.6-7.2 3.4-10.6.1-.2.2-.3.3-.5-.9 3.6-1.6 7.2-1.5 11 3-.4 5.9-.8 8.8-1.2.1-9.3 3-18 6.3-26.5-.3 1.7-.6 3.4-.9 5.2-.8 5.4-1.5 10.9-1.3 16.4.1 1.5.3 3 .5 4.5 3.4-.2 6.7-.4 10-.7-.8-10.6 1.3-20.7 6.7-30-.2 1.1-.3 2.1-.5 3.2-.9 5.8-1.4 11.7-1.1 17.6.2 2.9.6 5.7.9 8.6 0 .4.2.5.6.5h8.6c-3 .1-6 .2-9.1.4.5 2 1 3.8 1.5 5.8 2.6-.5 5.2-.9 7.3-2.4 1.7-1.2 2.6-2.9 2.6-4.9 0-1.5-.2-2.9-.2-4.4-.1-3.5.4-6.9 1.3-10.2.8-3 1.8-6 2.7-9 0-.1.1-.2.2-.3-.1.7-.3 1.3-.4 2-1.1 6.2-1.5 12.5-.1 18.7.3 1.2.7 2.5 1 3.7.1.4.3.6.8.6 7.3 0 14.4.8 21.5 2.6 4.2 1.1 8.3 2.5 11.9 4.9 1.4.9 2.7 2 3.8 3.3 1.4 1.7 2.1 3.6 1.9 5.9-.2 2.1-.8 4.1-1.9 5.9-.1.2-.2.3-.4.5-.3-.4-.7-.7-1-1.1-2.5-2.6-5.5-3.3-8.9-2.2-2.1.7-4 1.9-5.9 2.9-.6.3-1.1.5-1.8.5h-17c-.1 0-.2 0-.4-.1 2.1-.5 4.1-1.3 6-2.2l11.7-5.7c1-.5 2-.8 3-1.2 1.8-.6 3.6-.4 5.3.5.7.4 1.4.8 2.2 1.3.6-1.2.6-2.5.2-3.7-.7-1.9-2.1-3.3-3.7-4.4-2.5-1.8-5.4-3-8.3-4-5.3-1.7-10.7-2.7-16.2-3.2-.7-.2-1.5-.3-2.3-.3zm-22.4.6c-3.2.3-6.4.7-9.6 1 1.5 5.6 5.6 7 10.2 5.5-.2-2.2-.4-4.3-.6-6.5zm-26.2 4.3c-1.4.7-2.7 1.3-4 2-.5.2-.9.6-1.2 1-.5.5-.4 1 .1 1.3 1.3.8 2.8 1 4.3.8.2 0 .4-.3.4-.5.2-1.4.3-2.9.4-4.6zm49 24.3v11.2h-3.3V65h4.6c.4 0 .5.1.7.5 1.1 3.1 2.2 6.2 3.3 9.5.1-.3.2-.4.2-.6 1-3 2.1-5.9 3.1-8.9.1-.3.3-.5.6-.5h4.5v15.1h-3.3V68.8h-.1c-.1.1-.1.3-.2.4l-3.6 10.5c-.1.3-.3.5-.6.5h-1.6c-.4 0-.5-.1-.6-.5-1.1-3.5-2.3-6.9-3.4-10.4 0-.1-.1-.3-.2-.4h-.1z"/><path d="M41 49.9c3.7-.2 7.2.2 10 2.9 2.7 2.7 3.3 6.1 3.2 9.8h-8.3c-.5 0-.7-.2-.9-.6-1.7-3.4-2.9-7-3.7-10.6-.1-.5-.2-1-.3-1.4v-.1zm48.7 15.2v3h-6.9v2.8h6.5V74h-6.5v3.1h7.3v3H79.5V65c3.3.1 6.7.1 10.2.1z"/><path d="M74.7 57.1c-2.2 1.1-4.4 2.1-6.5 3.2-2.1 1.1-4.4 1.9-6.7 2.1-2 .2-4 .2-6 .3.4-4.6-1.4-8.3-4.3-11.5 7.3 3.7 14.9 6.5 23.5 5.9zM31.9 11.5c-2.1 2.7-4.6 4.7-7.2 6.8 2.3-3 4.5-6 6.7-8.9 1.4-1.7 3-3.2 4.8-4.5.2-.1.3-.2.6-.4.4 5.9.7 11.7 1.1 17.5-3-3-4.7-6.6-6-10.5zm29.5.6c-2.1 2.7-4.6 4.7-7.3 6.9.8-1.1 1.6-2 2.3-3 1.8-2.5 3.6-5.1 5.7-7.4 1.2-1.3 2.5-2.5 4.1-3.6.4 5.9.7 11.7 1.1 17.5-2.9-2.9-4.6-6.5-5.9-10.4zm-8.7 5.5c-1.5-1.5-2.7-3.2-3.6-5-.9-1.8-1.6-3.6-2.5-5.5-1.9 2.5-4.4 4.5-6.9 6.4.3-.3.6-.7.9-1 1.7-2.2 3.4-4.5 5.1-6.7 1.6-2.1 3.5-4 5.6-5.6.1-.1.2-.1.4-.3.2 6 .6 11.8 1 17.7zm-14.4 49l-1.2.9c-.6-.9-1.5-1.4-2.5-1.5-.8-.1-1.6 0-2.4.4-1.8 1-2 3.5-.3 4.7.7.5 1.6.7 2.4 1 .6.2 1.3.4 2 .7 3.1 1.3 2.7 5.3.8 6.8-2.3 1.8-6.4 1.2-8.1-1.2.4-.3.8-.6 1.3-.9.6 1 1.5 1.7 2.7 1.8.9.1 1.8.1 2.7-.4 1-.6 1.6-1.4 1.5-2.6 0-1.1-.6-1.9-1.6-2.3-.8-.3-1.5-.6-2.3-.9-.5-.2-1.1-.4-1.6-.6-1.6-.7-2.3-2-2.3-3.7 0-1.7.8-2.9 2.3-3.6 2.2-1 5-.6 6.4 1.1.1.1.1.2.2.3zM16 78.2c.7-1.8 1.3-3.5 2-5.3.9-2.4 1.8-4.8 2.6-7.2.2-.5.4-.8 1-.7h.7l-.9 2.4c-1.6 4.1-3.1 8.2-4.6 12.3-.2.6-.5.5-1 .5-.4 0-.7-.1-.9-.5-1.7-4.7-3.5-9.5-5.3-14.2 0-.1-.1-.2-.1-.4h1.2c.2 0 .3.3.4.5 1.5 4 2.9 8 4.4 11.9.1.2.2.5.3.7h.2zm41.2-13.1v1.2h-5.1v13.9h-1.4V66.4h-5.2v-1.2c3.9-.1 7.8-.1 11.7-.1zm-32.8 0h1.3v15.1h-1.3V65.1zm18.7 15.1h-1.3V65.1h1.3v15.1z"/></g></svg>