<?xml version="1.0" encoding="utf-8"?><svg width="266" height="266" viewBox="0 0 266 266" xmlns="http://www.w3.org/2000/svg" xmlns:xlink="http://www.w3.org/1999/xlink"><svg viewBox="-5 -5 34 34" width="34" height="34" id="arrow-rounded" y="232" xmlns="http://www.w3.org/2000/svg"><path fill-rule="evenodd" clip-rule="evenodd" fill="#FFF" d="M13.3 7.1l4.1 4.1c.3.3.3.7.1 1l-.1.1-4 4c-.3.3-.8.3-1.1 0-.3-.3-.3-.7-.1-1l.1-.1 2.7-2.7H6.7c-.4 0-.7-.3-.7-.6v-.1c0-.4.3-.7.6-.7H15l-2.7-2.7c-.3-.4-.3-.8-.1-1.1l.1-.1c.2-.2.7-.3 1-.1zM12 2.2c-5.4 0-9.8 4.4-9.8 9.8s4.4 9.8 9.8 9.8 9.8-4.4 9.8-9.8-4.4-9.8-9.8-9.8zm0-1.4c6.2 0 11.2 5 11.2 11.2s-5 11.2-11.2 11.2S.8 18.2.8 12 5.8.8 12 .8z"/></svg><svg width="34" height="35" viewBox="-5 -5 34 35" id="bus" x="198" xmlns="http://www.w3.org/2000/svg"><path d="M21 19.713a2.25 2.25 0 01-1.5 2.122v.878a2.25 2.25 0 11-4.5 0v-.75H9v.75a2.25 2.25 0 01-2.096 2.245l-.154.005a2.25 2.25 0 01-2.25-2.25v-.878A2.25 2.25 0 013 19.713v-9.75h-.75a.75.75 0 00-.743.648l-.007.102v4.5a.75.75 0 11-1.5 0v-4.5a2.25 2.25 0 012.25-2.25H3v-2.25c0-2.9 2.35-5.25 5.25-5.25h7.5A5.25 5.25 0 0121 6.213v2.25h.75a2.25 2.25 0 012.245 2.096l.005.154v4.5a.75.75 0 11-1.5 0v-4.5a.75.75 0 00-.75-.75H21v9.75zm-13.5 2.25H6v.75c0 .38.282.693.648.743l.102.007a.75.75 0 00.75-.75v-.75zm10.5 0h-1.5v.75c0 .38.282.693.648.743l.102.007a.75.75 0 00.75-.75v-.75zm1.5-6h-15v3.75c0 .414.336.75.75.75h13.5a.75.75 0 00.75-.75v-3.75zm-9.75 1.5a.75.75 0 110 1.5h-3a.75.75 0 110-1.5zm7.5 0a.75.75 0 110 1.5h-3a.75.75 0 110-1.5zm2.25-9l-15-.001v6l15 .001v-6zm-3.75-6h-7.5a3.75 3.75 0 00-3.75 3.75v.75h15v-.75a3.75 3.75 0 00-3.75-3.75zm-1.5 1.5a.75.75 0 110 1.5h-4.5a.75.75 0 010-1.5z" fill="#fff" fill-rule="evenodd"/></svg><svg width="34" height="34" viewBox="-5 -5 34 34" id="calendar" x="60" y="198" xmlns="http://www.w3.org/2000/svg"><path d="M17.25 0a.75.75 0 01.75.75V3h3.75A2.25 2.25 0 0124 5.25v16.5A2.25 2.25 0 0121.75 24H2.25A2.25 2.25 0 010 21.75V5.25A2.25 2.25 0 012.25 3H6V.75a.75.75 0 01.648-.743L6.75 0a.75.75 0 01.75.75V3h9V.75a.75.75 0 01.648-.743zm5.25 10.5h-21v11.25c0 .414.336.75.75.75h19.5a.75.75 0 00.75-.75V10.5zm-7.35 2.55a.75.75 0 011.2.9l-4.5 6a.75.75 0 01-1.13.08l-3-3a.75.75 0 011.06-1.06l2.389 2.388zM6 4.5H2.25a.75.75 0 00-.75.75V9h21V5.25a.75.75 0 00-.75-.75H18V6a.75.75 0 01-.648.743l-.102.007A.75.75 0 0116.5 6V4.5h-9V6a.75.75 0 01-.648.743l-.102.007A.75.75 0 016 6V4.5z" fill="#fff" fill-rule="evenodd"/></svg><svg width="15" height="18" viewBox="-5 -5 15 18" id="caret-left" x="128" y="198" xmlns="http://www.w3.org/2000/svg"><path d="M3.764.445L.728 3.48a.5.5 0 000 .707l3.036 3.036a.5.5 0 00.853-.354V.8a.5.5 0 00-.853-.354z" fill="#17324D" fill-rule="nonzero"/></svg><svg width="15" height="18" viewBox="-5 -5 15 18" id="caret-right" x="177" y="132" xmlns="http://www.w3.org/2000/svg"><path d="M1.084.445L4.119 3.48a.5.5 0 010 .707L1.084 7.223a.5.5 0 01-.854-.354V.8a.5.5 0 01.854-.354z" fill="#17324D" fill-rule="nonzero"/></svg><svg width="22" height="17" viewBox="-5 -5 22 17" id="chevron-down-small" x="66" y="174" xmlns="http://www.w3.org/2000/svg"><path d="M1.28.22A.75.75 0 00.22 1.28l4.91 4.911a.75.75 0 001.061 0l4.911-4.91A.75.75 0 0010.042.22L5.66 4.6 1.28.22z" fill="#30373D" fill-rule="evenodd"/></svg><svg width="22" height="17" viewBox="-5 -5 22 17" id="chevron-down-small-white" x="232" y="202" xmlns="http://www.w3.org/2000/svg"><path d="M1.28.22A.75.75 0 00.22 1.28l4.91 4.911a.75.75 0 001.061 0l4.911-4.91A.75.75 0 0010.042.22L5.66 4.6 1.28.22z" fill="#fff" fill-rule="evenodd"/></svg><svg width="34" height="34" viewBox="-5 -5 34 34" id="clock" x="232" y="102" xmlns="http://www.w3.org/2000/svg"><path d="M12 .75C18.213.75 23.25 5.787 23.25 12S18.213 23.25 12 23.25.75 18.213.75 12 5.787.75 12 .75zm0 1.5c-5.385 0-9.75 4.365-9.75 9.75s4.365 9.75 9.75 9.75 9.75-4.365 9.75-9.75S17.385 2.25 12 2.25zm0 2.25a.75.75 0 01.75.75v4.628a2.25 2.25 0 011.28 3.092l2.25 2.25a.75.75 0 01-1.06 1.06l-2.25-2.25a2.25 2.25 0 11-1.719-4.153L11.25 5.25A.75.75 0 0112 4.5zm0 6.75a.75.75 0 100 1.5.75.75 0 000-1.5z" fill="#3B76BD" fill-rule="evenodd"/></svg><svg width="34" height="32" viewBox="-5 -5 34 32" id="dati-home" x="232" y="170" xmlns="http://www.w3.org/2000/svg"><path d="M20.254 12.173a.75.75 0 01.743.648l.007.102v8.25a.75.75 0 01-.648.743l-.102.007h-6a.75.75 0 01-.743-.648l-.007-.102v-6a.75.75 0 00-.648-.743l-.102-.007h-1.5a.75.75 0 00-.743.648l-.007.102v6a.75.75 0 01-.648.743l-.102.007h-6a.75.75 0 01-.743-.648l-.007-.102v-8.25a.75.75 0 011.493-.102l.007.102v7.5h4.5v-5.25a2.25 2.25 0 012.096-2.245l.154-.005h1.5a2.25 2.25 0 012.245 2.096l.005.154v5.25h4.499l.001-7.5a.75.75 0 01.648-.743l.102-.007zM13.466.584l.13.12 2.206 2.206a.75.75 0 01.6-.48l.102-.007h3.75a.75.75 0 01.743.648l.007.102v4.939l2.78 2.78a.75.75 0 01-.976 1.134l-.084-.073-10.19-10.189a.75.75 0 00-.976-.072l-.084.072-10.19 10.19a.75.75 0 01-1.133-.977l.073-.084L10.414.703a2.25 2.25 0 013.052-.119zm6.038 3.339h-2.25v.439l2.25 2.25V3.923z" fill="#273B4B" fill-rule="evenodd"/></svg><svg width="35" height="34" viewBox="-5 -5 35 34" id="dati-immigrazione" x="108" y="132" xmlns="http://www.w3.org/2000/svg"><path d="M6.996 7.5a6 6 0 016 5.999l.004 2.25a.75.75 0 01-.75.751h-1.572l-.682 6.825a.75.75 0 01-.643.668L9.25 24h-4.5a.75.75 0 01-.746-.675L3.32 16.5H1.746a.75.75 0 01-.743-.648l-.007-.102V13.5a6 6 0 016-6zm12.75 2.998c2.9 0 5.25 2.35 5.25 5.25 0 1.674-1.454 4.169-3.584 6.973l-.484.628a1.5 1.5 0 01-2.364 0c-2.387-3.052-4.068-5.802-4.068-7.6a5.25 5.25 0 015.25-5.251zM6.996 9a4.5 4.5 0 00-4.5 4.5l-.001 1.499L4 15a.75.75 0 01.729.573l.017.102.682 6.825h3.143l.683-6.825a.75.75 0 01.643-.668L10 15l1.498-.001-.002-1.499a4.5 4.5 0 00-4.288-4.495zm12.75 2.998a3.75 3.75 0 00-3.75 3.751c0 1.212 1.405 3.595 3.317 6.115l.433.561.426-.553c1.917-2.526 3.324-4.91 3.324-6.124a3.75 3.75 0 00-3.75-3.75zm0 2.625l.123.007a1.125 1.125 0 11-.246 0l.123-.007zM16.75-.002a3.75 3.75 0 013.745 3.55l.005.2-.001 2.686 1.717-1.716a.75.75 0 01.976-.073l.084.073a.75.75 0 01.073.976l-.073.084-2.966 2.97a.748.748 0 01-.732.231l-.039-.011a.51.51 0 01-.068-.022l-.024-.012a.658.658 0 01-.147-.083l-.084-.073-3-3a.75.75 0 01.976-1.133l.084.073L19 6.44 19 3.748a2.25 2.25 0 00-2.096-2.245l-.154-.005H13a.75.75 0 01-.102-1.493L13-.002h3.75zm-9.754 0a3.75 3.75 0 110 7.5 3.75 3.75 0 010-7.5zm0 1.5a2.25 2.25 0 100 4.5 2.25 2.25 0 000-4.5z" fill="#273B4B" fill-rule="evenodd"/></svg><svg width="34" height="34" viewBox="-5 -5 34 34" id="dati-registry" x="100" y="232" xmlns="http://www.w3.org/2000/svg"><path d="M12 0c6.627 0 12 5.373 12 12s-5.373 12-12 12S0 18.627 0 12 5.373 0 12 0zm0 1.5C6.201 1.5 1.5 6.201 1.5 12S6.201 22.5 12 22.5 22.5 17.799 22.5 12 17.799 1.5 12 1.5zM12 9a4.5 4.5 0 014.5 4.5v2.25a.75.75 0 01-.75.75h-.865l-.645 3.873a.75.75 0 01-.632.62L13.5 21h-3a.75.75 0 01-.74-.627L9.114 16.5H8.25a.75.75 0 01-.743-.648L7.5 15.75V13.5A4.5 4.5 0 0112 9zm0 1.5a3 3 0 00-3 3V15h.75a.75.75 0 01.714.521l.026.106.645 3.873h1.729l.646-3.873a.75.75 0 01.632-.62L14.25 15H15v-1.5a3 3 0 00-2.824-2.995zM12 3a3 3 0 110 6 3 3 0 010-6zm0 1.5a1.5 1.5 0 100 3 1.5 1.5 0 000-3z" fill="#273B4B" fill-rule="evenodd"/></svg><svg width="34" height="34" viewBox="-5 -5 34 34" id="info" x="198" y="69" xmlns="http://www.w3.org/2000/svg"><defs><filter id="ala"><feColorMatrix in="SourceGraphic" values="0 0 0 0 0.153794 0 0 0 0 0.230902 0 0 0 0 0.295743 0 0 0 1.000000 0"/></filter></defs><g filter="url(#ala)" fill="none" fill-rule="evenodd" stroke-linecap="round" stroke-linejoin="round"><g stroke="#000" stroke-width="1.5"><path d="M14.25 16.5h-.75A1.5 1.5 0 0112 15v-3.75a.75.75 0 00-.75-.75h-.75M11.625 6.75a.375.375 0 100 .75.375.375 0 000-.75h0"/><circle cx="12" cy="12" r="11.25"/></g></g></svg><svg width="34" height="27" viewBox="-5 -5 34 27" id="mail" x="198" y="103" xmlns="http://www.w3.org/2000/svg"><path d="M21 0c.702 0 1.33.322 1.742.826l.013.017a2.237 2.237 0 01.495 1.407v12A2.25 2.25 0 0121 16.5H3a2.25 2.25 0 01-2.25-2.25v-12c0-.53.183-1.017.49-1.401l.018-.023A2.246 2.246 0 013 0h18zm.75 2.562l-7.276 5.596a4.058 4.058 0 01-4.948 0L2.25 2.562V14.25c0 .414.336.75.75.75h18a.75.75 0 00.75-.75V2.562zM20.669 1.5H3.33l7.11 5.47a2.558 2.558 0 002.963.11l.157-.11 7.109-5.47z" fill="#3B76BD" fill-rule="evenodd"/></svg><svg width="34" height="27" viewBox="-5 -5 34 27" id="mail-white" x="198" y="130" xmlns="http://www.w3.org/2000/svg"><path d="M21 0c.702 0 1.33.322 1.742.826l.013.017a2.237 2.237 0 01.495 1.407v12A2.25 2.25 0 0121 16.5H3a2.25 2.25 0 01-2.25-2.25v-12c0-.53.183-1.017.49-1.401l.018-.023A2.246 2.246 0 013 0h18zm.75 2.562l-7.276 5.596a4.058 4.058 0 01-4.948 0L2.25 2.562V14.25c0 .414.336.75.75.75h18a.75.75 0 00.75-.75V2.562zM20.669 1.5H3.33l7.11 5.47a2.558 2.558 0 002.963.11l.157-.11 7.109-5.47z" fill="#fff" fill-rule="evenodd"/></svg><svg width="34" height="34" viewBox="-5 -5 34 34" id="phone" x="198" y="157" xmlns="http://www.w3.org/2000/svg"><path d="M2.168 4.863a2.25 2.25 0 013.181 0l2.652 2.65a2.25 2.25 0 010 3.183.75.75 0 000 1.06L12.243 16a.75.75 0 001.06 0 2.25 2.25 0 013.183 0l2.653 2.65a2.25 2.25 0 010 3.183l-.628.63c-1.74 1.74-4.457 2.039-6.566.695A41.386 41.386 0 01.818 12.019a5.25 5.25 0 01.72-6.528zm2.12 1.06a.75.75 0 00-1.06 0l-.63.63a3.756 3.756 0 00-.51 4.67l.377.546A39.856 39.856 0 0012.79 21.92l.185.11a3.75 3.75 0 004.475-.627l.629-.63a.75.75 0 000-1.06l-2.654-2.652a.75.75 0 00-1.06 0 2.25 2.25 0 01-3.182 0L6.94 12.817a2.25 2.25 0 010-3.181.75.75 0 000-1.062zM11.25 7.5c2.9 0 5.25 2.35 5.25 5.25a.75.75 0 11-1.5 0A3.75 3.75 0 0011.25 9a.75.75 0 110-1.5zm0-3.75a9 9 0 019 9 .75.75 0 11-1.5 0 7.5 7.5 0 00-7.5-7.5.75.75 0 110-1.5zm0-3.75C18.292 0 24 5.708 24 12.75a.75.75 0 11-1.5 0c0-6.213-5.037-11.25-11.25-11.25a.75.75 0 110-1.5z" fill="#3B76BD" fill-rule="evenodd"/></svg><svg width="34" height="34" viewBox="-5 -5 34 34" id="phone-white" x="143" y="132" xmlns="http://www.w3.org/2000/svg"><path d="M2.168 4.863a2.25 2.25 0 013.181 0l2.652 2.65a2.25 2.25 0 010 3.183.75.75 0 000 1.06L12.243 16a.75.75 0 001.06 0 2.25 2.25 0 013.183 0l2.653 2.65a2.25 2.25 0 010 3.183l-.628.63c-1.74 1.74-4.457 2.039-6.566.695A41.386 41.386 0 01.818 12.019a5.25 5.25 0 01.72-6.528zm2.12 1.06a.75.75 0 00-1.06 0l-.63.63a3.756 3.756 0 00-.51 4.67l.377.546A39.856 39.856 0 0012.79 21.92l.185.11a3.75 3.75 0 004.475-.627l.629-.63a.75.75 0 000-1.06l-2.654-2.652a.75.75 0 00-1.06 0 2.25 2.25 0 01-3.182 0L6.94 12.817a2.25 2.25 0 010-3.181.75.75 0 000-1.062zM11.25 7.5c2.9 0 5.25 2.35 5.25 5.25a.75.75 0 11-1.5 0A3.75 3.75 0 0011.25 9a.75.75 0 110-1.5zm0-3.75a9 9 0 019 9 .75.75 0 11-1.5 0 7.5 7.5 0 00-7.5-7.5.75.75 0 110-1.5zm0-3.75C18.292 0 24 5.708 24 12.75a.75.75 0 11-1.5 0c0-6.213-5.037-11.25-11.25-11.25a.75.75 0 110-1.5z" fill="#fff" fill-rule="evenodd"/></svg><svg width="30" height="34" viewBox="-5 -5 30 34" id="pin" y="198" xmlns="http://www.w3.org/2000/svg"><path d="M10 .004c5.385 0 9.75 4.365 9.75 9.75 0 3.715-1.427 6.966-3.864 9.744a20.342 20.342 0 01-5.143 4.207 1.5 1.5 0 01-1.487 0 20.357 20.357 0 01-5.142-4.208C1.677 16.719.25 13.467.25 9.754.25 4.369 4.615.004 10 .004zm0 1.5a8.25 8.25 0 00-8.25 8.25c0 3.318 1.278 6.231 3.491 8.753a18.945 18.945 0 004.399 3.684l.36.212.359-.212a18.932 18.932 0 004.4-3.683c2.212-2.521 3.491-5.435 3.491-8.754A8.25 8.25 0 0010 1.504zM10 8a1.5 1.5 0 110 3 1.5 1.5 0 010-3z" fill="#3B76BD" fill-rule="evenodd"/></svg><svg width="30" height="34" viewBox="-5 -5 30 34" id="pin-green" x="30" y="198" xmlns="http://www.w3.org/2000/svg"><path d="M10 .004c5.385 0 9.75 4.365 9.75 9.75 0 3.715-1.427 6.966-3.864 9.744a20.342 20.342 0 01-5.143 4.207 1.5 1.5 0 01-1.487 0 20.357 20.357 0 01-5.142-4.208C1.677 16.719.25 13.467.25 9.754.25 4.369 4.615.004 10 .004zm0 1.5a8.25 8.25 0 00-8.25 8.25c0 3.318 1.278 6.231 3.491 8.753a18.945 18.945 0 004.399 3.684l.36.212.359-.212a18.932 18.932 0 004.4-3.683c2.212-2.521 3.491-5.435 3.491-8.754A8.25 8.25 0 0010 1.504zM10 8a1.5 1.5 0 110 3 1.5 1.5 0 010-3z" fill="#008A00" fill-rule="evenodd"/></svg><svg width="30" height="34" viewBox="-5 -5 30 34" id="pin-white" x="198" y="35" xmlns="http://www.w3.org/2000/svg"><path d="M10 .004c5.385 0 9.75 4.365 9.75 9.75 0 3.715-1.427 6.966-3.864 9.744a20.342 20.342 0 01-5.143 4.207 1.5 1.5 0 01-1.487 0 20.357 20.357 0 01-5.142-4.208C1.677 16.719.25 13.467.25 9.754.25 4.369 4.615.004 10 .004zm0 1.5a8.25 8.25 0 00-8.25 8.25c0 3.318 1.278 6.231 3.491 8.753a18.945 18.945 0 004.399 3.684l.36.212.359-.212a18.932 18.932 0 004.4-3.683c2.212-2.521 3.491-5.435 3.491-8.754A8.25 8.25 0 0010 1.504zM10 8a1.5 1.5 0 110 3 1.5 1.5 0 010-3z" fill="#fff" fill-rule="evenodd"/></svg><svg width="66" height="66" viewBox="-5 -5 66 66" id="prenotazione-stato-1" x="66" y="66" xmlns="http://www.w3.org/2000/svg"><g fill="none" fill-rule="evenodd"><circle fill="#39546B" cx="28" cy="28" r="28"/><path d="M30.379 16.011a2.25 2.25 0 011.59.659l5.872 5.872c.422.422.659.994.659 1.59v13.629a2.25 2.25 0 01-2.25 2.25h-16.5a2.25 2.25 0 01-2.25-2.25v-19.5a2.25 2.25 0 012.25-2.25zm-.879 1.5h-9.75a.75.75 0 00-.75.75v19.5c0 .414.336.75.75.75h16.5a.75.75 0 00.75-.75v-12.75h-5.25a2.25 2.25 0 01-2.245-2.096l-.005-.154v-5.25zm-3.38 14.258a.75.75 0 01.209.957l-.06.093-2.132 2.842a1.5 1.5 0 01-2.14.269l-.12-.109-1.157-1.157a.75.75 0 01.976-1.133l.084.073 1.157 1.157 2.132-2.842a.75.75 0 011.05-.15zm7.13 2.242a.75.75 0 01.102 1.493l-.102.007h-4.5a.75.75 0 01-.102-1.493l.102-.007h4.5zm0-6a.75.75 0 01.102 1.493l-.102.007h-4.5a.75.75 0 01-.102-1.493l.102-.007h4.5zm-7.13-2.992a.75.75 0 01.209.957l-.06.093-2.132 2.842a1.5 1.5 0 01-2.14.269l-.12-.108-1.157-1.156a.75.75 0 01.976-1.134l.084.072 1.157 1.157 2.132-2.842a.75.75 0 011.05-.15zM31 17.822v4.939c0 .38.282.693.648.743l.102.007h4.939L31 17.822z" fill="#F9F9F9"/></g></svg><svg width="66" height="66" viewBox="-5 -5 66 66" id="prenotazione-stato-2" x="132" xmlns="http://www.w3.org/2000/svg"><g fill="none" fill-rule="evenodd"><circle fill="#39546B" cx="28" cy="28" r="28"/><path d="M30.379 16.011a2.25 2.25 0 011.59.659l5.872 5.872c.422.422.659.994.659 1.59v13.629a2.25 2.25 0 01-2.25 2.25h-16.5a2.25 2.25 0 01-2.25-2.25v-19.5a2.25 2.25 0 012.25-2.25zm-.879 1.5h-9.75a.75.75 0 00-.75.75v19.5c0 .414.336.75.75.75h16.5a.75.75 0 00.75-.75v-12.75h-5.25a2.25 2.25 0 01-2.245-2.096l-.005-.154v-5.25zm-3.38 14.258a.75.75 0 01.209.957l-.06.093-2.132 2.842a1.5 1.5 0 01-2.14.269l-.12-.109-1.157-1.157a.75.75 0 01.976-1.133l.084.073 1.157 1.157 2.132-2.842a.75.75 0 011.05-.15zm7.13 2.242a.75.75 0 01.102 1.493l-.102.007h-4.5a.75.75 0 01-.102-1.493l.102-.007h4.5zm0-6a.75.75 0 01.102 1.493l-.102.007h-4.5a.75.75 0 01-.102-1.493l.102-.007h4.5zm-7.13-2.992a.75.75 0 01.209.957l-.06.093-2.132 2.842a1.5 1.5 0 01-2.14.269l-.12-.108-1.157-1.156a.75.75 0 01.976-1.134l.084.072 1.157 1.157 2.132-2.842a.75.75 0 011.05-.15zM31 17.822v4.939c0 .38.282.693.648.743l.102.007h4.939L31 17.822z" fill="#F9F9F9"/></g></svg><svg width="66" height="66" viewBox="-5 -5 66 66" id="prenotazione-stato-3" xmlns="http://www.w3.org/2000/svg"><g fill="none" fill-rule="evenodd"><circle fill="#39546B" cx="28" cy="28" r="28"/><path d="M22.75 26.5c3.675 0 6.75 1.538 6.75 3.75v6c0 2.213-3.075 3.75-6.75 3.75-3.585 0-6.6-1.463-6.745-3.59L16 36.25v-6l.005-.16c.145-2.126 3.16-3.59 6.745-3.59zm0 10.5c-2.1 0-4.004-.502-5.25-1.345v.595c0 1.101 2.297 2.25 5.25 2.25 2.863 0 5.11-1.08 5.244-2.15l.006-.1.001-.596C26.755 36.498 24.851 37 22.75 37zm5.251-4.346C26.755 33.498 24.851 34 22.75 34c-2.1 0-4.004-.502-5.25-1.345v.595c0 1.101 2.297 2.25 5.25 2.25 2.863 0 5.11-1.08 5.244-2.15l.006-.1zM22.75 28c-2.953 0-5.25 1.149-5.25 2.25s2.297 2.25 5.25 2.25S28 31.351 28 30.25 25.703 28 22.75 28zm15-12a2.25 2.25 0 012.245 2.096l.005.154v12a2.25 2.25 0 01-2.096 2.245l-.154.005h-6a.75.75 0 01-.102-1.493L31.75 31h6a.75.75 0 00.743-.648l.007-.102v-12a.75.75 0 00-.648-.743l-.102-.007h-19.5a.75.75 0 00-.743.648l-.007.102v7.507a.75.75 0 01-1.493.102L16 25.757V18.25a2.25 2.25 0 012.096-2.245L18.25 16h19.5zM35.5 26.875l.123.007a1.125 1.125 0 11-.246 0l.123-.007zm-4.174-4.357a3.75 3.75 0 01-.852 4.55.75.75 0 11-.99-1.127 2.25 2.25 0 10-3.727-1.862l-.007.171a.75.75 0 01-1.5 0 3.75 3.75 0 017.076-1.732zM20.5 19.375l.123.007a1.125 1.125 0 11-.246 0l.123-.007z" fill="#FFF" fill-rule="nonzero"/></g></svg><svg width="66" height="66" viewBox="-5 -5 66 66" id="prenotazione-stato-4" y="132" xmlns="http://www.w3.org/2000/svg"><g fill-rule="nonzero" fill="none"><circle fill="#008A00" cx="28" cy="28" r="28"/><path d="M25.436 17.96l.134.137.878.973a1.076 1.076 0 001.508.09l.092-.09.88-.974a2.579 2.579 0 012.9-.649.75.75 0 01-.48 1.418l-.096-.032a1.08 1.08 0 00-1.116.176l-.096.094-.878.97a2.576 2.576 0 01-3.69.144l-.138-.142-.878-.973a1.078 1.078 0 00-1.877.657v.124l.07 1.31a2.578 2.578 0 01-2.511 2.709l-.198-.003-1.308-.067a1.078 1.078 0 00-.87 1.78l.095.097.972.878a2.578 2.578 0 01.142 3.69l-.142.138-.973.878a1.078 1.078 0 00.655 1.876l.124.001 1.308-.067a2.578 2.578 0 012.708 2.51l-.002.198-.07 1.308a1.078 1.078 0 001.78.873l.097-.095.878-.972a2.578 2.578 0 013.69-.142l.138.142.878.973a1.078 1.078 0 001.878-.657v-.124l-.067-1.308a2.578 2.578 0 012.507-2.708l.198.002 1.309.067a1.078 1.078 0 00.872-1.78l-.095-.097-.972-.878a2.578 2.578 0 01-.142-3.69l.142-.138.973-.878c.122-.11.217-.247.278-.4l.04-.116a.75.75 0 111.447.394 2.576 2.576 0 01-.61 1.088l-.15.148-.972.878a1.078 1.078 0 00-.091 1.508l.09.092.972.878a2.578 2.578 0 01-1.679 4.492l-.18-.003-1.308-.067a1.078 1.078 0 00-1.13 1.002l-.001.13.067 1.306a2.578 2.578 0 01-4.356 2.001l-.134-.137-.878-.972a1.078 1.078 0 00-1.508-.091l-.092.09-.878.972a2.578 2.578 0 01-4.492-1.682l.003-.181.07-1.306a1.078 1.078 0 00-1.002-1.13l-.13-.002-1.307.067a2.578 2.578 0 01-1.998-4.355l.137-.134.972-.878a1.078 1.078 0 00.091-1.508l-.09-.092-.972-.878a2.578 2.578 0 011.676-4.492l.18.003 1.31.067a1.078 1.078 0 001.132-1l.001-.13-.07-1.307a2.578 2.578 0 014.355-2.004zm14.295-1.283a.75.75 0 01.156.967l-.065.09-10.788 12.807a2.25 2.25 0 01-3.413.034l-.108-.133L23 27.091a.75.75 0 011.127-.984l.073.084 2.513 3.35a.75.75 0 001.094.115l.08-.081 10.787-12.807a.75.75 0 011.057-.09z" fill="#FFF"/></g></svg><svg width="66" height="66" viewBox="-5 -5 66 66" id="prenotazione-stato-5" x="132" y="66" xmlns="http://www.w3.org/2000/svg"><g fill="none" fill-rule="evenodd"><circle fill="#0D3C27" cx="28" cy="28" r="28"/><path d="M28 16c3.307 0 6.302 1.338 8.472 3.502l.013.013A11.961 11.961 0 0140 28c0 6.627-5.373 12-12 12a11.962 11.962 0 01-8.472-3.502l-.013-.013A11.961 11.961 0 0116 28c0-6.627 5.373-12 12-12zm7.936 5.124L21.124 35.936A10.46 10.46 0 0028 38.5c5.799 0 10.5-4.701 10.5-10.5 0-2.63-.967-5.034-2.564-6.876zM28 17.5c-5.799 0-10.5 4.701-10.5 10.5 0 2.63.967 5.034 2.564 6.876l14.812-14.812A10.46 10.46 0 0028 17.5z" fill="#FFF" fill-rule="nonzero"/></g></svg><svg version="1.1" id="search" x="232" y="136" viewBox="-5 -5 34 34" xml:space="preserve" width="34" height="34" xmlns="http://www.w3.org/2000/svg"><style>.ayst0{fill-rule:evenodd;clip-rule:evenodd;fill:#30373d}</style><path class="ayst0" d="M10.1 2.7c-4 0-7.3 3.3-7.3 7.3s3.3 7.3 7.3 7.3c2 0 3.8-.8 5.2-2.1 1.3-1.3 2.1-3.1 2.1-5.2 0-4-3.3-7.3-7.3-7.3zm0-1.5c4.9 0 8.8 3.9 8.8 8.8 0 2.2-.8 4.1-2.1 5.7l5.7 5.7c.3.3.3.8 0 1.1-.3.3-.8.3-1.1 0l-5.7-5.7c-1.5 1.3-3.5 2.1-5.7 2.1-4.9 0-8.8-3.9-8.8-8.8s4-8.9 8.9-8.9z"/></svg><svg version="1.1" id="search-big" x="66" y="132" viewBox="-5 -5 42 42" xml:space="preserve" width="42" height="42" xmlns="http://www.w3.org/2000/svg"><style>.azst0{fill:#fff}</style><path class="azst0" d="M31.64 29.92l-7.9-7.9c1.94-2.33 3.12-5.32 3.12-8.59C26.85 6.02 20.83 0 13.43 0 6.02 0 0 6.02 0 13.43c0 7.4 6.02 13.43 13.43 13.43 3.26 0 6.26-1.17 8.59-3.12l7.9 7.9c.24.24.55.36.86.36s.62-.12.86-.36c.48-.47.48-1.25 0-1.72zm-18.21-5.51c-6.06 0-10.99-4.93-10.99-10.99S7.37 2.44 13.43 2.44s10.99 4.93 10.99 10.99-4.93 10.98-10.99 10.98z"/></svg><svg viewBox="-5 -5 66 66" width="66" height="66" id="section-luoghi-dot" y="66" xmlns="http://www.w3.org/2000/svg"><circle fill="#FFF" cx="28" cy="28" r="28"/><path fill-rule="evenodd" clip-rule="evenodd" fill="#3B76BD" d="M32.8 23.5c-3.3 0-6 2.7-6 6v2.2c0 .4.3.8.8.8h1.6l.7 6.8c0 .4.4.7.7.7H35c.4 0 .7-.3.7-.7l.7-6.8H38c.4 0 .8-.3.8-.8v-2.2c0-3.3-2.7-6-6-6zM25.5 22c0-.4-.3-.8-.8-.8s-.7.4-.7.8v5.3h-4.5c-1.2 0-2.2.9-2.2 2.1v7c0 1.2 1 2.2 2.2 2.2h3.1c.3.9 1.1 1.5 2.1 1.5 1.2 0 2.2-1 2.2-2.2 0-1-.6-1.8-1.5-2.1l.1-13.8zm7.3 3c2.5 0 4.5 2 4.5 4.5V31h-1.5c-.4 0-.7.3-.7.7l-.7 6.8h-3.1l-.7-6.8c0-.4-.4-.7-.7-.7h-1.5v-1.5c-.2-2.5 1.9-4.5 4.4-4.5zm-8.1 12c.1 0 .1 0 0 0 .4 0 .8.3.8.8 0 .4-.3.8-.8.8s-.7-.4-.7-.9c0-.4.3-.7.7-.7zm-5.2-8.2H24v6.9c-.6.2-1.1.7-1.4 1.4h-3.1c-.4 0-.8-.3-.8-.8v-6.8c.1-.4.4-.7.8-.7zM32.8 16c-2.1 0-3.8 1.7-3.8 3.8s1.7 3.8 3.8 3.8 3.8-1.7 3.8-3.8-1.8-3.8-3.8-3.8zm0 1.5c1.2 0 2.2 1 2.2 2.2 0 1.2-1 2.2-2.2 2.2-1.2 0-2.3-1-2.3-2.2 0-1.2 1-2.2 2.3-2.2z"/></svg><svg width="32" height="34" viewBox="-5 -5 32 34" id="section-luoghi-white" x="34" y="232" xmlns="http://www.w3.org/2000/svg"><path d="M15.5 7.502a6 6 0 00-6 6v2.25c0 .414.336.75.75.75h1.571l.683 6.825a.75.75 0 00.746.675h4.5a.75.75 0 00.746-.675l.683-6.825h1.571a.75.75 0 00.75-.75v-2.25a6 6 0 00-6-6zM8.254 6a.75.75 0 10-1.5 0v5.252H2.25a2.25 2.25 0 00-2.245 2.096L0 13.502v6.75a2.25 2.25 0 002.25 2.25h3.133a2.25 2.25 0 102.87-2.874zM15.5 9.002a4.5 4.5 0 014.5 4.5v1.5h-1.5a.75.75 0 00-.746.675l-.683 6.825H13.93l-.683-6.825a.75.75 0 00-.746-.675H11v-1.5a4.5 4.5 0 014.5-4.5zM7.496 21l.016.001a.749.749 0 01-.008 1.499.75.75 0 110-1.5h-.008zM2.25 12.752h4.504v6.876a2.256 2.256 0 00-1.373 1.375l-3.131-.001a.75.75 0 01-.75-.75v-6.75a.75.75 0 01.75-.75zM15.504 0a3.75 3.75 0 100 7.5 3.75 3.75 0 000-7.5zm0 1.5a2.25 2.25 0 110 4.5 2.25 2.25 0 010-4.5z" fill="#fff" fill-rule="evenodd"/></svg><svg width="34" height="34" viewBox="-5 -5 34 34" id="section-services-white" x="66" y="232" xmlns="http://www.w3.org/2000/svg"><path d="M.75 13.5a.75.75 0 01.75.75V15H6a3.752 3.752 0 013.632 2.812l.043.188h3.075a3.75 3.75 0 013.75 3.75.75.75 0 01-.75.75H1.5v.75a.75.75 0 01-.648.743L.75 24a.75.75 0 01-.75-.75v-9a.75.75 0 01.75-.75zm5.25 3H1.5V21h13.372a2.252 2.252 0 00-1.95-1.494l-.172-.006H6A.75.75 0 116 18h2.122A2.25 2.25 0 006 16.5zm6.75-12a3 3 0 010 6h.01a4.5 4.5 0 014.49 4.5.75.75 0 11-1.5 0A3 3 0 0010 13.8a.75.75 0 11-1.374-.6 4.499 4.499 0 014.124-2.7h-.016a3 3 0 01.016-6zm4.05 3.9A4.5 4.5 0 0124 12a.75.75 0 11-1.5 0 3 3 0 00-4.8-2.4.75.75 0 11-.9-1.2zM3.988 7.976A4.501 4.501 0 018.7 8.4a.75.75 0 11-.9 1.2A3.001 3.001 0 003 12a.75.75 0 01-1.5 0c0-1.704.964-3.262 2.488-4.024zM12.75 6a1.5 1.5 0 100 3 1.5 1.5 0 000-3zm6.75-6a3.75 3.75 0 110 7.5 3.75 3.75 0 010-7.5zM6 0a3.75 3.75 0 110 7.5A3.75 3.75 0 016 0zm13.5 1.5a2.25 2.25 0 100 4.5 2.25 2.25 0 000-4.5zM6 1.5A2.25 2.25 0 106 6a2.25 2.25 0 000-4.5z" fill="#fff" fill-rule="nonzero"/></svg><svg width="66" height="66" viewBox="-5 -5 66 66" id="section-servizi-dot" x="66" xmlns="http://www.w3.org/2000/svg"><g fill-rule="nonzero" fill="none"><circle fill="#FFF" cx="28" cy="28" r="28"/><path d="M16.75 29.5a.75.75 0 01.75.75V31H22a3.752 3.752 0 013.632 2.812l.043.188h3.075a3.75 3.75 0 013.75 3.75.75.75 0 01-.75.75H17.5v.75a.75.75 0 01-.648.743L16.75 40a.75.75 0 01-.75-.75v-9a.75.75 0 01.75-.75zm5.25 3h-4.5V37h13.372a2.252 2.252 0 00-1.95-1.494l-.172-.006H22a.75.75 0 110-1.5h2.122A2.25 2.25 0 0022 32.5zm6.75-12a3 3 0 010 6h.01a4.5 4.5 0 014.49 4.5.75.75 0 11-1.5 0A3 3 0 0026 29.8a.75.75 0 11-1.374-.6 4.499 4.499 0 014.124-2.7h-.016a3 3 0 01.016-6zm4.05 3.9A4.5 4.5 0 0140 28a.75.75 0 11-1.5 0 3 3 0 00-4.8-2.4.75.75 0 11-.9-1.2zm-12.812-.424a4.501 4.501 0 014.712.424.75.75 0 11-.9 1.2A3.001 3.001 0 0019 28a.75.75 0 01-1.5 0c0-1.704.964-3.262 2.488-4.024zM28.75 22a1.5 1.5 0 100 3 1.5 1.5 0 000-3zm6.75-6a3.75 3.75 0 110 7.5 3.75 3.75 0 010-7.5zM22 16a3.75 3.75 0 110 7.5 3.75 3.75 0 010-7.5zm13.5 1.5a2.25 2.25 0 100 4.5 2.25 2.25 0 000-4.5zm-13.5 0a2.25 2.25 0 100 4.5 2.25 2.25 0 000-4.5z" fill="#008A00"/></g></svg><svg width="34" height="34" viewBox="-5 -5 34 34" id="suitable-all" x="134" y="232" xmlns="http://www.w3.org/2000/svg"><g stroke="#fff" stroke-width="1.5" fill="none" fill-rule="evenodd" stroke-linecap="round" stroke-linejoin="round"><circle cx="12" cy="3.75" r="3"/><path d="M15.75 14.25V12a3.75 3.75 0 00-7.5 0v2.25h1.5l.75 6h3l.75-6h1.5z"/><circle cx="4.5" cy="6" r="2.25"/><path d="M5.7 9.947A3.753 3.753 0 00.75 13.5v.75h1.5l.75 4.5h3l.376-2.256"/><circle cx="19.5" cy="6" r="2.25"/><path d="M18.3 9.947a3.753 3.753 0 014.95 3.553v.75h-1.5l-.75 4.5h-3l-.376-2.256M23.25 21c0 1.243-5.037 2.25-11.25 2.25S.75 22.243.75 21"/></g></svg><svg width="34" height="34" viewBox="-5 -5 34 34" id="suitable-baby" x="168" y="232" xmlns="http://www.w3.org/2000/svg"><path d="M13.863.835a.75.75 0 011.04-.21 5.25 5.25 0 012.294 5.117 9.741 9.741 0 013.969 4.926l.184.035a3.376 3.376 0 01-.184 6.629 9.75 9.75 0 01-18.332 0 3.376 3.376 0 010-6.664A9.75 9.75 0 0115.75 4.991a3.748 3.748 0 00-1.676-3.116.75.75 0 01-.21-1.04zm2.882 6.408l-.095.192a5.25 5.25 0 01-9.397-.19 8.238 8.238 0 00-3.146 4.348.75.75 0 01-.718.532l-.16.006a1.875 1.875 0 00.146 3.744l.122.008a.75.75 0 01.61.524 8.25 8.25 0 0015.786 0 .75.75 0 01.718-.532l.16-.006a1.875 1.875 0 00-.146-3.744l-.122-.008a.75.75 0 01-.61-.524 8.24 8.24 0 00-3.148-4.35zm-1.95 10.007a.75.75 0 111.118 1 5.25 5.25 0 01-7.826 0 .75.75 0 011.118-1 3.75 3.75 0 005.59 0zm-6.17-5.5l.123.007A1.125 1.125 0 018.625 14a1.125 1.125 0 010-2.25zm6.75 0l.123.007A1.125 1.125 0 0115.375 14a1.125 1.125 0 010-2.25zM12 5.742a8.233 8.233 0 00-3.441.752 3.75 3.75 0 006.88 0A8.214 8.214 0 0012 5.742z" fill="#fff" fill-rule="evenodd"/></svg><svg width="34" height="34" viewBox="-5 -5 34 34" id="suitable-couple" x="232" y="68" xmlns="http://www.w3.org/2000/svg"><g stroke="#fff" stroke-width="1.5" fill="none" fill-rule="evenodd" stroke-linecap="round" stroke-linejoin="round"><circle cx="6" cy="3.75" r="3"/><path d="M11.25 13.5a5.25 5.25 0 00-10.5 0v2.25H3l.75 7.5h4.5l.75-7.5h2.25V13.5zM6 8.25v6"/><circle cx="18" cy="3.75" r="3"/><path d="M13.5 15.75H15l.75 7.5h4.5l.75-7.5h2.25V13.5a5.246 5.246 0 00-2.364-4.386L18 13.5l-2.886-4.386A5.292 5.292 0 0013.5 10.8M15 3.75s0 3.75-2.25 3.75M21 3.75s0 3.75 2.25 3.75"/></g></svg><svg width="34" height="34" viewBox="-5 -5 34 34" id="suitable-family" x="232" y="34" xmlns="http://www.w3.org/2000/svg"><g stroke="#fff" stroke-width="1.5" fill="none" fill-rule="evenodd" stroke-linecap="round" stroke-linejoin="round"><circle cx="19.5" cy="5.25" r="3"/><path d="M17.812 20.25l.188 1.5h3l.75-6h1.5V13.5a3.75 3.75 0 00-6-3"/><circle cx="4.5" cy="5.25" r="3"/><path d="M6.188 20.25L6 21.75H3l-.75-6H.75V13.5a3.75 3.75 0 016-3"/><circle cx="12" cy="9" r="2.25"/><path d="M12 12.75a3.75 3.75 0 00-3.75 3.75v.75h1.5l.75 4.5H12M12 12.75a3.75 3.75 0 013.75 3.75v.75h-1.5l-.75 4.5H12"/></g></svg><svg width="34" height="34" viewBox="-5 -5 34 34" id="suitable-single" x="232" xmlns="http://www.w3.org/2000/svg"><g stroke="#fff" stroke-width="1.5" fill="none" fill-rule="evenodd" stroke-linecap="round" stroke-linejoin="round"><circle cx="12" cy="3.75" r="3"/><path d="M17.25 13.5a5.25 5.25 0 00-10.5 0v2.25H9l.75 7.5h4.5l.75-7.5h2.25V13.5z"/></g></svg><svg width="34" height="32" viewBox="-5 -5 34 32" id="time" x="94" y="198" xmlns="http://www.w3.org/2000/svg"><path d="M7.611.858c5.006-2.022 10.64-.006 13.294 4.515l.926-2.293a.75.75 0 011.39.562l-1.606 3.977a.75.75 0 01-.977.414l-3.785-1.53a.75.75 0 01.562-1.39l2.09.844C17.181 2.191 12.415.535 8.173 2.249a9.25 9.25 0 106.93 17.153.75.75 0 11.562 1.39c-5.505 2.225-11.77-.435-13.994-5.94C-.553 9.348 2.106 3.082 7.61.858zM12 3.986a.75.75 0 01.75.75v4.142a2.25 2.25 0 011.281 3.092l2.25 2.25a.75.75 0 01-1.061 1.06l-2.25-2.25a2.25 2.25 0 11-1.72-4.152V4.736a.75.75 0 01.75-.75zm0 6.264a.75.75 0 100 1.5.75.75 0 000-1.5z" fill="#fff" fill-rule="evenodd"/></svg><svg width="34" height="34" viewBox="-5 -5 34 34" id="walk" x="202" y="232" xmlns="http://www.w3.org/2000/svg"><path d="M11.518 6.748c2 .022 3.902.87 5.25 2.335.312.332.965.386 2.016.034a2.25 2.25 0 012.85 1.422l.045.155a2.25 2.25 0 01-1.47 2.689c-2.907.967-5.114.38-6.57-1.06l-.391 1.47.29.096a5.276 5.276 0 013.323 3.322l1.07 3.22a2.25 2.25 0 01-2.638 2.818 2.239 2.239 0 01-1.674-1.537l-1.027-3.076a.76.76 0 00-.474-.476l-.028-.01-.914 3.43a2.25 2.25 0 11-4.35-1.16l2.077-7.789-2.236 1.864a2.25 2.25 0 01-3.095-.343c-.773-.925-.68-2.295.237-3.128l3.152-2.63a7.134 7.134 0 014.557-1.646zM.788 20.013a.75.75 0 011.424.474l-.75 2.25a.75.75 0 01-1.424-.474zm3 0a.75.75 0 011.424.474l-.75 2.25a.75.75 0 01-1.424-.474zm18.475-.475a.75.75 0 01.949.475l.75 2.25a.75.75 0 01-1.424.474l-.75-2.25a.75.75 0 01.475-.949zm-3 0a.75.75 0 01.949.475l.75 2.25a.75.75 0 01-1.424.474l-.75-2.25a.75.75 0 01.475-.949zM11.51 8.248a5.627 5.627 0 00-3.59 1.299l-3.127 2.608a.75.75 0 00-.071 1.035c.258.309.713.36 1.008.134L8.89 10.69a3.94 3.94 0 01.998-.583.75.75 0 011.004.89l-2.616 9.81a.75.75 0 101.45.387l1.12-4.2a.75.75 0 01.962-.519l.787.263a2.262 2.262 0 011.42 1.422l1.034 3.103a.75.75 0 001.287.278.763.763 0 00.126-.778l-1.024-3.076a3.774 3.774 0 00-2.375-2.375l-.959-.32a.75.75 0 01-.488-.904l.87-3.258a.75.75 0 011.09-.461c.371.207.71.468 1.013.78 1.074 1.137 2.724 1.616 5.147.81a.75.75 0 00.474-.946l-.046-.11a.75.75 0 00-.904-.364c-1.546.518-2.79.415-3.59-.433a5.745 5.745 0 00-4.16-1.858zM12.75.733a3 3 0 110 6 3 3 0 010-6zm0 1.5a1.5 1.5 0 100 3 1.5 1.5 0 000-3z" fill="#fff" fill-rule="evenodd"/></svg></svg>