<svg width="24" height="24" xmlns="http://www.w3.org/2000/svg"><path d="M12 .75C5.787.75.75 5.787.75 12S5.787 23.25 12 23.25 23.25 18.213 23.25 12 18.213.75 12 .75zm0 1.5c5.385 0 9.75 4.365 9.75 9.75s-4.365 9.75-9.75 9.75S2.25 17.385 2.25 12 6.615 2.25 12 2.25zm-1.252 4.897l-.084.073-4 4a.75.75 0 00-.073.976l.073.084 4 4a.75.75 0 001.133-.976l-.073-.084-2.72-2.72h8.283a.75.75 0 00.743-.648l.007-.102a.75.75 0 00-.649-.743L17.287 11H9.005l2.72-2.72a.75.75 0 00.072-.976l-.073-.084a.75.75 0 00-.976-.073z" fill="#273B4B" fill-rule="nonzero"/></svg>