<?xml version="1.0" encoding="UTF-8"?>
<svg width="24px" height="24px" viewBox="0 0 24 24" version="1.1" xmlns="http://www.w3.org/2000/svg" xmlns:xlink="http://www.w3.org/1999/xlink">
    <g id="#.STYLEGUIDE" stroke="none" stroke-width="1" fill="none" fill-rule="evenodd">
        <g id="Map-3" transform="translate(-77.000000, -588.000000)">
            <g id="Group-10-Copy-7" transform="translate(25.000000, 175.000000)">
                <g id="Group-4" transform="translate(2.000000, 1.000000)">
                    <g id="#/icon/arrow" transform="translate(50.000000, 412.000000)">
                        <g transform="translate(12.000000, 12.000000) scale(-1, 1) translate(-12.000000, -12.000000) ">
                            <path d="M12,0.75 C18.2132034,0.75 23.25,5.78679656 23.25,12 C23.25,18.2132034 18.2132034,23.25 12,23.25 C5.78679656,23.25 0.75,18.2132034 0.75,12 C0.75,5.78679656 5.78679656,0.75 12,0.75 Z M12,2.25 C6.61522369,2.25 2.25,6.61522369 2.25,12 C2.25,17.3847763 6.61522369,21.75 12,21.75 C17.3847763,21.75 21.75,17.3847763 21.75,12 C21.75,6.61522369 17.3847763,2.25 12,2.25 Z M13.2521807,7.14705176 L13.3362991,7.21966991 L17.3362991,11.2196699 C17.6025657,11.4859365 17.6267717,11.9026002 17.4089173,12.1962117 L17.3362991,12.2803301 L13.3362991,16.2803301 C13.0434059,16.5732233 12.5685321,16.5732233 12.2756389,16.2803301 C12.0093724,16.0140635 11.9851663,15.5973998 12.2030208,15.3037883 L12.2756389,15.2196699 L14.9952906,12.5 L6.71329058,12.5 C6.33359481,12.5 6.01979962,12.2178461 5.97013719,11.8517706 L5.96329058,11.75 C5.96329058,11.3703042 6.24544446,11.056509 6.61152002,11.0068466 L6.71329058,11 L14.9952906,11 L12.2756389,8.28033009 C12.0093724,8.01406352 11.9851663,7.59739984 12.2030208,7.30378835 L12.2756389,7.21966991 C12.5419055,6.95340335 12.9585692,6.9291973 13.2521807,7.14705176 Z" id="Combined-Shape" fill="#3B76BD"></path>
                        </g>
                    </g>
                </g>
            </g>
        </g>
    </g>
</svg>