<?xml version="1.0" encoding="utf-8"?>
<!-- Generator: Adobe Illustrator 24.1.3, SVG Export Plug-In . SVG Version: 6.00 Build 0)  -->
<svg version="1.1" id="it-search" xmlns="http://www.w3.org/2000/svg" xmlns:xlink="http://www.w3.org/1999/xlink" x="0px" y="0px"
	 viewBox="0 0 24 24" enable-background="new 0 0 24 24" xml:space="preserve">
<path fill-rule="evenodd" clip-rule="evenodd" fill="#FFFFFF" d="M13.3,7.1L13.3,7.1l4.1,4.1c0.3,0.3,0.3,0.7,0.1,1l-0.1,0.1l-4,4
	c-0.3,0.3-0.8,0.3-1.1,0c-0.3-0.3-0.3-0.7-0.1-1l0.1-0.1l2.7-2.7H6.7c-0.4,0-0.7-0.3-0.7-0.6l0-0.1c0-0.4,0.3-0.7,0.6-0.7l0.1,0H15
	l-2.7-2.7C12,8,12,7.6,12.2,7.3l0.1-0.1C12.5,7,13,6.9,13.3,7.1z M12,2.2c-5.4,0-9.8,4.4-9.8,9.8s4.4,9.8,9.8,9.8s9.8-4.4,9.8-9.8
	S17.4,2.2,12,2.2z M12,0.8c6.2,0,11.2,5,11.2,11.2s-5,11.2-11.2,11.2S0.8,18.2,0.8,12S5.8,0.8,12,0.8z"/>
</svg>
