<?xml version="1.0" encoding="UTF-8"?>
<svg width="24px" height="25px" viewBox="0 0 24 25" version="1.1" xmlns="http://www.w3.org/2000/svg" xmlns:xlink="http://www.w3.org/1999/xlink">
    <title>Combined Shape</title>
    <g id="symbols" stroke="none" stroke-width="1" fill="none" fill-rule="evenodd">
        <g id="#/icon/bus" transform="translate(0.000000, 1.000000)" fill="#ffffff">
            <path d="M21,18.713 C21,19.6925694 20.3740154,20.5259322 19.5002535,20.8348811 L19.5,21.713 C19.5,22.9556407 18.4926407,23.963 17.25,23.963 C16.0073593,23.963 15,22.9556407 15,21.713 L15,21.713 L15,20.963 L9,20.963 L9,21.713 C9,22.903864 8.07483841,23.8786449 6.90404881,23.9578092 L6.75,23.963 C5.50735931,23.963 4.5,22.9556407 4.5,21.713 L4.5,21.713 L4.50076538,20.8352411 C3.62647132,20.52658 3,19.6929501 3,18.713 L3,8.963 L2.25,8.963 C1.87030423,8.963 1.55650904,9.24515388 1.50684662,9.61122944 L1.5,9.713 L1.5,14.213 C1.5,14.6272136 1.16421356,14.963 0.75,14.963 C0.335786438,14.963 0,14.6272136 0,14.213 L0,14.213 L0,9.713 C0,8.47035931 1.00735931,7.463 2.25,7.463 L2.25,7.463 L3,7.463 L3,5.213 C3,2.31350506 5.35050506,-0.037 8.25,-0.037 L15.75,-0.037 C17.1423866,-0.037 18.4777446,0.516123412 19.4623106,1.5006894 C20.4468766,2.48525539 21,3.82061343 21,5.213 L21,7.463 L21.75,7.463 C22.940864,7.463 23.9156449,8.38816159 23.9948092,9.55895119 L24,9.713 L24,14.213 C24,14.6272136 23.6642136,14.963 23.25,14.963 C22.8357864,14.963 22.5,14.6272136 22.5,14.213 L22.5,14.213 L22.5,9.713 C22.5,9.29878644 22.1642136,8.963 21.75,8.963 L21.75,8.963 L21,8.963 L21,18.713 Z M7.5,20.963 L6,20.963 L6,21.713 C6,22.0926958 6.28215388,22.406491 6.64822944,22.4561534 L6.75,22.463 C7.16421356,22.463 7.5,22.1272136 7.5,21.713 L7.5,21.713 L7.5,20.963 Z M18,20.963 L16.5,20.963 L16.5,21.713 C16.5,22.0926958 16.7821539,22.406491 17.1482294,22.4561534 L17.25,22.463 C17.6642136,22.463 18,22.1272136 18,21.713 L18,21.713 L18,20.963 Z M19.5,14.963 L4.5,14.963 L4.5,18.713 C4.5,19.1272136 4.83578644,19.463 5.25,19.463 L18.75,19.463 C19.1642136,19.463 19.5,19.1272136 19.5,18.713 L19.5,14.963 Z M9.75,16.463 C10.1642136,16.463 10.5,16.7987864 10.5,17.213 C10.5,17.6272136 10.1642136,17.963 9.75,17.963 L9.75,17.963 L6.75,17.963 C6.33578644,17.963 6,17.6272136 6,17.213 C6,16.7987864 6.33578644,16.463 6.75,16.463 L6.75,16.463 Z M17.25,16.463 C17.6642136,16.463 18,16.7987864 18,17.213 C18,17.6272136 17.6642136,17.963 17.25,17.963 L17.25,17.963 L14.25,17.963 C13.8357864,17.963 13.5,17.6272136 13.5,17.213 C13.5,16.7987864 13.8357864,16.463 14.25,16.463 L14.25,16.463 Z M19.5,7.463 L4.5,7.462 L4.5,13.462 L19.5,13.463 L19.5,7.463 Z M15.75,1.463 L8.25,1.463 C6.17893219,1.463 4.5,3.14193219 4.5,5.213 L4.5,5.963 L19.5,5.963 L19.5,5.213 C19.5,4.21843816 19.1049118,3.26461099 18.4016504,2.56134957 C17.698389,1.85808815 16.7445618,1.463 15.75,1.463 Z M14.25,2.963 C14.6642136,2.963 15,3.29878644 15,3.713 C15,4.12721356 14.6642136,4.463 14.25,4.463 L14.25,4.463 L9.75,4.463 C9.33578644,4.463 9,4.12721356 9,3.713 C9,3.29878644 9.33578644,2.963 9.75,2.963 L9.75,2.963 Z" id="Combined-Shape"></path>
        </g>
    </g>
</svg>