<?xml version="1.0" encoding="UTF-8"?>
<svg width="24px" height="24px" viewBox="0 0 24 24" version="1.1" xmlns="http://www.w3.org/2000/svg" xmlns:xlink="http://www.w3.org/1999/xlink">
    <g id="symbols" stroke="none" stroke-width="1" fill="none" fill-rule="evenodd">
        <g id="#/icon/Calendar" fill="#ffffff">
            <path d="M17.25,0 C17.6642136,0 18,0.335786438 18,0.75 L18,0.75 L18,3 L21.75,3 C22.9926407,3 24,4.00735931 24,5.25 L24,21.75 C24,22.9926407 22.9926407,24 21.75,24 L2.25,24 C1.00735931,24 0,22.9926407 0,21.75 L0,5.25 C0,4.00735931 1.00735931,3 2.25,3 L6,3 L6,0.75 C6,0.370304234 6.28215388,0.0565090391 6.64822944,0.006846616 L6.75,0 C7.16421356,0 7.5,0.335786438 7.5,0.75 L7.5,0.75 L7.5,3 L16.5,3 L16.5,0.75 C16.5,0.370304234 16.7821539,0.0565090391 17.1482294,0.006846616 Z M22.5,10.5 L1.5,10.5 L1.5,21.75 C1.5,22.1642136 1.83578644,22.5 2.25,22.5 L21.75,22.5 C22.1642136,22.5 22.5,22.1642136 22.5,21.75 L22.5,10.5 Z M15.15,13.05 C15.3985281,12.7186292 15.8686292,12.6514719 16.2,12.9 C16.5313708,13.1485281 16.5985281,13.6186292 16.35,13.95 L16.35,13.95 L11.85,19.95 C11.5761528,20.3151296 11.0424019,20.3530621 10.7196699,20.0303301 L10.7196699,20.0303301 L7.71966991,17.0303301 C7.4267767,16.7374369 7.4267767,16.2625631 7.71966991,15.9696699 C8.01256313,15.6767767 8.48743687,15.6767767 8.78033009,15.9696699 L8.78033009,15.9696699 L11.1688544,18.3581942 Z M6,4.5 L2.25,4.5 C1.83578644,4.5 1.5,4.83578644 1.5,5.25 L1.5,9 L22.5,9 L22.5,5.25 C22.5,4.83578644 22.1642136,4.5 21.75,4.5 L18,4.5 L18,6 C18,6.37969577 17.7178461,6.69349096 17.3517706,6.74315338 L17.25,6.75 C16.8357864,6.75 16.5,6.41421356 16.5,6 L16.5,6 L16.5,4.5 L7.5,4.5 L7.5,6 C7.5,6.37969577 7.21784612,6.69349096 6.85177056,6.74315338 L6.75,6.75 C6.33578644,6.75 6,6.41421356 6,6 L6,6 L6,4.5 Z" id="Combined-Shape"></path>
        </g>
    </g>
</svg>