<?xml version="1.0" encoding="UTF-8"?>
<svg width="24px" height="24px" viewBox="0 0 24 24" version="1.1" xmlns="http://www.w3.org/2000/svg" xmlns:xlink="http://www.w3.org/1999/xlink">
    <title>Combined Shape</title>
    <g id="symbols" stroke="none" stroke-width="1" fill="none" fill-rule="evenodd">
        <g id="#/icon/clock" fill="#3B76BD">
            <path d="M12,0.75 C18.2132034,0.75 23.25,5.78679656 23.25,12 C23.25,18.2132034 18.2132034,23.25 12,23.25 C5.78679656,23.25 0.75,18.2132034 0.75,12 C0.75,5.78679656 5.78679656,0.75 12,0.75 Z M12,2.25 C6.61522369,2.25 2.25,6.61522369 2.25,12 C2.25,17.3847763 6.61522369,21.75 12,21.75 C17.3847763,21.75 21.75,17.3847763 21.75,12 C21.75,6.61522369 17.3847763,2.25 12,2.25 Z M12,4.5 C12.4142136,4.5 12.75,4.83578644 12.75,5.25 L12.75,5.25 L12.7502535,9.8781189 C13.6240154,10.1870678 14.25,11.0204306 14.25,12 C14.25,12.3472542 14.1713338,12.676135 14.03085,12.9697935 L16.2803301,15.2196699 C16.5732233,15.5125631 16.5732233,15.9874369 16.2803301,16.2803301 C15.9874369,16.5732233 15.5125631,16.5732233 15.2196699,16.2803301 L15.2196699,16.2803301 L12.9697935,14.03085 C12.676135,14.1713338 12.3472542,14.25 12,14.25 C10.7573593,14.25 9.75,13.2426407 9.75,12 C9.75,11.0200499 10.3764713,10.18642 11.2507654,9.87775892 L11.25,5.25 C11.25,4.83578644 11.5857864,4.5 12,4.5 Z M12,11.25 C11.5857864,11.25 11.25,11.5857864 11.25,12 C11.25,12.4142136 11.5857864,12.75 12,12.75 C12.4142136,12.75 12.75,12.4142136 12.75,12 C12.75,11.5857864 12.4142136,11.25 12,11.25 Z" id="Combined-Shape"></path>
        </g>
    </g>
</svg>