<?xml version="1.0" encoding="UTF-8"?>
<svg width="24px" height="24px" viewBox="0 0 24 24" version="1.1" xmlns="http://www.w3.org/2000/svg" xmlns:xlink="http://www.w3.org/1999/xlink">
    <title>Combined Shape</title>
    <g id="symbols" stroke="none" stroke-width="1" fill="none" fill-rule="evenodd">
        <g id="#/icon/anagrafica" fill="#273B4B">
            <path d="M12,0 C18.627417,0 24,5.372583 24,12 C24,18.627417 18.627417,24 12,24 C5.372583,24 0,18.627417 0,12 C0,5.372583 5.372583,0 12,0 Z M12,1.5 C6.20101013,1.5 1.5,6.20101013 1.5,12 C1.5,17.7989899 6.20101013,22.5 12,22.5 C17.7989899,22.5 22.5,17.7989899 22.5,12 C22.5,6.20101013 17.7989899,1.5 12,1.5 Z M12,9 C14.4852814,9 16.5,11.0147186 16.5,13.5 L16.5,13.5 L16.5,15.75 C16.5,16.1642136 16.1642136,16.5 15.75,16.5 L15.75,16.5 L14.885,16.5 L14.2397954,20.3732992 C14.1855493,20.6987761 13.9266817,20.9460222 13.6081778,20.9922167 L13.6081778,20.9922167 L13.5,21 L10.5,21 C10.1333706,21 9.82047805,20.7349402 9.76020456,20.3732992 L9.76020456,20.3732992 L9.114,16.5 L8.25,16.5 C7.87030423,16.5 7.55650904,16.2178461 7.50684662,15.8517706 L7.50684662,15.8517706 L7.5,15.75 L7.5,13.5 C7.5,11.0147186 9.51471863,9 12,9 Z M12,10.5 C10.3431458,10.5 9,11.8431458 9,13.5 L9,13.5 L9,15 L9.75,15 C10.0799664,15 10.3664061,15.2146984 10.4643337,15.5212744 L10.4643337,15.5212744 L10.4897954,15.6267008 L11.135,19.5 L12.864,19.5 L13.5102046,15.6267008 C13.5644507,15.3012239 13.8233183,15.0539778 14.1418222,15.0077833 L14.1418222,15.0077833 L14.25,15 L15,15 L15,13.5 C15,11.9023191 13.75108,10.5963391 12.1762728,10.5050927 L12.1762728,10.5050927 Z M12,3 C13.6568542,3 15,4.34314575 15,6 C15,7.65685425 13.6568542,9 12,9 C10.3431458,9 9,7.65685425 9,6 C9,4.34314575 10.3431458,3 12,3 Z M12,4.5 C11.1715729,4.5 10.5,5.17157288 10.5,6 C10.5,6.82842712 11.1715729,7.5 12,7.5 C12.8284271,7.5 13.5,6.82842712 13.5,6 C13.5,5.17157288 12.8284271,4.5 12,4.5 Z" id="Combined-Shape"></path>
        </g>
    </g>
</svg>