<?xml version="1.0" encoding="UTF-8"?>
<svg width="25px" height="24px" viewBox="0 0 25 24" version="1.1" xmlns="http://www.w3.org/2000/svg" xmlns:xlink="http://www.w3.org/1999/xlink">
    <title>Combined Shape</title>
    <g id="symbols" stroke="none" stroke-width="1" fill="none" fill-rule="evenodd">
        <g id="#/icon/migrazione" transform="translate(1.000000, 0.000000)" fill="#273B4B">
            <path d="M5.996,7.5 C9.3097085,7.5 11.996,10.1862915 11.996,13.4986667 L11.996,13.4986667 L12,15.7486667 C12.0007361,16.1634004 11.6647344,16.5 11.25,16.5 L11.25,16.5 L9.678,16.5 L8.99627789,23.3246278 C8.96142322,23.6731745 8.69162307,23.9461588 8.35336475,23.9929117 L8.35336475,23.9929117 L8.25,24 L3.75,24 C3.36468641,24 3.04206224,23.7080291 3.00372211,23.3246278 L3.00372211,23.3246278 L2.321,16.5 L0.746,16.5 C0.366304234,16.5 0.0525090391,16.2178461 0.002846616,15.8517706 L0.002846616,15.8517706 L-0.004,15.75 L-0.004,13.5 C-0.004,10.1862915 2.6822915,7.5 5.996,7.5 Z M18.7459999,10.498 C21.6454949,10.498 23.9959998,12.848505 23.9959998,15.748 C23.9959998,17.4215567 22.541564,19.9169405 20.4120266,22.720806 L20.4120266,22.720806 L19.928,23.3487564 C19.643726,23.7125975 19.2077272,23.9252436 18.7459999,23.9252436 C18.2842728,23.9252436 17.848274,23.7125974 17.5642515,23.3490781 C15.1766316,20.296601 13.4959998,17.5467543 13.4959998,15.7491666 C13.4956906,14.3565779 14.0486774,13.0209201 15.0332769,12.0361019 C16.0178764,11.0512836 17.3534112,10.498 18.7459999,10.498 Z M5.996,9 C3.51071863,9 1.496,11.0147186 1.496,13.5 L1.496,13.5 L1.495,14.999 L3,15 C3.35028508,15 3.64876072,15.2412982 3.72893962,15.5732257 L3.72893962,15.5732257 L3.74627789,15.6753722 L4.428,22.5 L7.571,22.5 L8.25372211,15.6753722 C8.28857678,15.3268255 8.55837693,15.0538412 8.89663525,15.0070883 L8.89663525,15.0070883 L9,15 L10.498,14.999 L10.496,13.5 C10.496,11.0857267 8.59476348,9.11551091 6.2078357,9.00489799 L6.2078357,9.00489799 Z M18.7459999,11.998 C17.7512937,11.998 16.7973402,12.3932025 16.0940549,13.0966442 C15.3907695,13.8000858 14.9957789,14.7541271 14.9959998,15.749 C14.9959998,16.9613416 16.4010734,19.3439302 18.3131204,21.8635035 L18.3131204,21.8635035 L18.746,22.4252436 L19.1720406,21.8722081 C21.0893119,19.3458207 22.4959998,16.961725 22.4959998,15.748 C22.4959998,13.6769321 20.8170678,11.998 18.7459999,11.998 Z M18.746,14.623 L18.8685811,14.6296013 C19.4322391,14.6906801 19.871,15.168101 19.871,15.748 C19.871,16.3693203 19.3673203,16.873 18.746,16.873 C18.1246797,16.873 17.621,16.3693203 17.621,15.748 C17.621,15.168101 18.0597609,14.6906801 18.6234189,14.6296013 L18.746,14.623 Z M15.75,-0.002 C17.7542592,-0.002 19.3912737,1.57036105 19.494802,3.54884143 L19.5,3.748 L19.499,6.434 L21.2156699,4.71766991 C21.4819365,4.45140335 21.8986002,4.4271973 22.1922117,4.64505176 L22.2763301,4.71766991 C22.5425966,4.98393648 22.5668027,5.40060016 22.3489482,5.69421165 L22.2763301,5.77833009 L19.3096255,8.74733014 C19.172277,8.90115624 18.972448,8.998 18.75,8.998 C18.7123122,8.998 18.6752737,8.99522018 18.6390782,8.9898544 C18.6186992,8.98746848 18.598306,8.9836881 18.5780676,8.97905932 C18.5649767,8.97512918 18.5520529,8.97172531 18.5392704,8.96799029 C18.5162931,8.96252414 18.4935478,8.9548342 18.471141,8.9460243 C18.4627219,8.94106706 18.4547093,8.93768674 18.446769,8.93417264 C18.3956427,8.91374818 18.3461796,8.88536969 18.2997883,8.85094824 L18.2156699,8.77833009 L15.2156699,5.77833009 C14.9227767,5.48543687 14.9227767,5.01056313 15.2156699,4.71766991 C15.4819365,4.45140335 15.8986002,4.4271973 16.1922117,4.64505176 L16.2763301,4.71766991 L17.999,6.44 L18,3.748 C18,2.55713601 17.0748384,1.58235508 15.9040488,1.50319081 L15.75,1.498 L12,1.498 C11.5857864,1.498 11.25,1.16221356 11.25,0.748 C11.25,0.368304234 11.5321539,0.0545090391 11.8982294,0.004846616 L12,-0.002 L15.75,-0.002 Z M5.996,-0.002 C8.06706781,-0.002 9.746,1.67693219 9.746,3.748 C9.746,5.81906781 8.06706781,7.498 5.996,7.498 C3.92493219,7.498 2.246,5.81906781 2.246,3.748 C2.246,1.67693219 3.92493219,-0.002 5.996,-0.002 Z M5.996,1.498 C4.75335931,1.498 3.746,2.50535931 3.746,3.748 C3.746,4.99064069 4.75335931,5.998 5.996,5.998 C7.23864069,5.998 8.246,4.99064069 8.246,3.748 C8.246,2.50535931 7.23864069,1.498 5.996,1.498 Z" id="Combined-Shape"></path>
        </g>
    </g>
</svg>