<?xml version="1.0" encoding="UTF-8"?>
<svg width="24px" height="22px" viewBox="0 0 24 22" version="1.1" xmlns="http://www.w3.org/2000/svg" xmlns:xlink="http://www.w3.org/1999/xlink">
    <title>Combined Shape</title>
    <g id="symbols" stroke="none" stroke-width="1" fill="none" fill-rule="evenodd">
        <g id="#/icon/residenza" transform="translate(0.000000, -1.000000)" fill="#273B4B">
            <path d="M20.254,13.173 C20.6336958,13.173 20.947491,13.4551539 20.9971534,13.8212294 L21.004,13.923 L21.004,22.173 C21.004,22.5526958 20.7218461,22.866491 20.3557706,22.9161534 L20.254,22.923 L14.254,22.923 C13.8743042,22.923 13.560509,22.6408461 13.5108466,22.2747706 L13.504,22.173 L13.504,16.173 C13.504,15.7933042 13.2218461,15.479509 12.8557706,15.4298466 L12.754,15.423 L11.254,15.423 C10.8743042,15.423 10.560509,15.7051539 10.5108466,16.0712294 L10.504,16.173 L10.504,22.173 C10.504,22.5526958 10.2218461,22.866491 9.85577056,22.9161534 L9.754,22.923 L3.754,22.923 C3.37430423,22.923 3.06050904,22.6408461 3.01084662,22.2747706 L3.004,22.173 L3.004,13.923 C3.004,13.5087864 3.33978644,13.173 3.754,13.173 C4.13369577,13.173 4.44749096,13.4551539 4.49715338,13.8212294 L4.504,13.923 L4.504,21.423 L9.004,21.423 L9.004,16.173 C9.004,14.982136 9.92916159,14.0073551 11.0999512,13.9281908 L11.254,13.923 L12.754,13.923 C13.944864,13.923 14.9196449,14.8481616 14.9988092,16.0189512 L15.004,16.173 L15.004,21.423 L19.503,21.423 L19.504,13.923 C19.504,13.5433042 19.7861539,13.229509 20.1522294,13.1798466 L20.254,13.173 Z M13.4662075,1.58415434 L13.5953301,1.70366991 L15.8015421,3.90964109 C15.8967305,3.65586211 16.1255024,3.46738787 16.4022294,3.42984662 L16.504,3.423 L20.254,3.423 C20.6336958,3.423 20.947491,3.70515388 20.9971534,4.07122944 L21.004,4.173 L21.004,9.11183033 L23.7843301,11.8926699 C24.0772233,12.1855631 24.0772233,12.6604369 23.7843301,12.9533301 C23.5180635,13.2195966 23.1013998,13.2438027 22.8077883,13.0259482 L22.7236699,12.9533301 L12.53475,2.76441016 C12.2685001,2.49824066 11.85194,2.47404343 11.5584016,2.69177787 L11.4743041,2.76435611 L1.28430406,12.9533561 C0.991396471,13.246235 0.516522738,13.2462117 0.223643891,12.9533041 C-0.0426096051,12.6870244 -0.0667952105,12.2703596 0.151073657,11.9767588 L0.223695938,11.8926439 L10.41375,1.70358984 C11.2505354,0.867057115 12.5822197,0.827222224 13.4662075,1.58415434 Z M19.504,4.923 L17.254,4.923 L17.254,5.36183033 L19.504,7.61183033 L19.504,4.923 Z" id="Combined-Shape"></path>
        </g>
    </g>
</svg>