<?xml version="1.0" encoding="UTF-8"?>
<svg width="24px" height="17px" viewBox="0 0 24 17" version="1.1" xmlns="http://www.w3.org/2000/svg" xmlns:xlink="http://www.w3.org/1999/xlink">
    <title>Combined Shape</title>
    <g id="symbols" stroke="none" stroke-width="1" fill="none" fill-rule="evenodd">
        <g id="#/icon/mail" transform="translate(0.000000, -4.000000)" fill="#008A00">
            <path d="M21,4 C21.7022214,4 22.3293075,4.32169286 22.7419275,4.82574793 L22.7554897,4.84274515 C22.7572177,4.84499177 22.758931,4.84724507 22.7606296,4.84950492 C23.0668971,5.23319288 23.25,5.72021346 23.25,6.25 L23.25,18.25 C23.25,19.4926407 22.2426407,20.5 21,20.5 L3,20.5 C1.75735931,20.5 0.75,19.4926407 0.75,18.25 L0.75,6.25 C0.75,5.72021346 0.933102853,5.23319288 1.23947743,4.84876939 C1.24893588,4.83699133 1.25342852,4.83131947 1.25798628,4.82572982 C1.67069253,4.32169286 2.29777857,4 3,4 L21,4 Z M21.75,6.562 L14.4743005,12.1584546 C13.0156081,13.2805937 10.9843919,13.2805937 9.52574515,12.1584897 L9.52574515,12.1584897 L2.25,6.562 L2.25,18.25 C2.25,18.6642136 2.58578644,19 3,19 L21,19 C21.4142136,19 21.75,18.6642136 21.75,18.25 L21.75,6.562 Z M20.669,5.5 L3.33,5.5 L10.4403005,10.9695454 C11.3087181,11.6375995 12.499046,11.6747136 13.4032699,11.0808582 L13.5597452,10.9695103 L20.669,5.5 Z" id="Combined-Shape"></path>
        </g>
    </g>
</svg>
