<svg xmlns="http://www.w3.org/2000/svg" viewBox="0 0 40 27" width="40" height="27">
	<style>
		tspan { white-space:pre }
		.shp0 { fill: #ffffff } 
	</style>
	<g id="Layer">
		<path id="Layer" fill-rule="evenodd" class="shp0" d="M25.66 0.2L28.45 0.21C31.18 0.23 31.24 0.23 31.54 0.33C31.93 0.47 32.22 0.67 32.34 0.91C32.43 1.09 32.43 1.15 32.42 4.15L32.41 7.22L32.29 7.4C32.15 7.61 31.83 7.81 31.42 7.92C31.2 7.98 30.85 8 29.67 8.02L28.2 8.04L28.2 8.94C28.2 9.43 28.19 10.2 28.17 10.64L28.14 11.45L25.66 11.45L25.66 0.2ZM29.94 1.52L28.16 1.52L28.16 6.67L29.94 6.67L29.94 1.52Z" />
		<path id="Layer" fill-rule="evenodd" class="shp0" d="M36.58 0.21C38.57 0.2 38.91 0.23 39.36 0.44C39.63 0.57 39.89 0.85 39.95 1.09C39.99 1.23 40 2.86 39.99 6.73C39.97 11.45 39.96 12.25 39.89 12.75C39.53 15.37 38.69 17.62 37.27 19.7C34.98 23.06 31.43 25.45 27.46 26.27C25.15 26.75 22.56 26.7 20.29 26.13C17.1 25.32 14.16 23.51 12.09 21.08C11.86 20.81 11.67 20.59 11.66 20.59C11.64 20.6 11.29 20.87 10.88 21.2L10.13 21.8L10.1 21.63C10.06 21.45 9.86 14.83 9.88 14.8C9.91 14.78 14.78 18.05 14.8 18.1C14.81 18.13 14.56 18.34 14.25 18.58C13.93 18.82 13.67 19.02 13.65 19.04C13.62 19.1 14.31 19.86 14.94 20.46C16.83 22.27 19.38 23.53 22.05 23.97C25.71 24.56 29.33 23.65 32.36 21.35C32.95 20.9 34.19 19.68 34.64 19.09C36.12 17.18 37 15.15 37.37 12.77C37.46 12.21 37.48 11.88 37.49 10.08L37.52 8.03L35.72 8.03L35.72 11.45L33.23 11.45L33.23 1.12L33.33 0.92C33.49 0.58 33.89 0.35 34.49 0.25C34.61 0.23 35.55 0.21 36.58 0.21ZM37.51 1.56L35.72 1.56L35.72 6.67L37.51 6.67L37.51 1.56Z" />
		<path id="Layer" fill-rule="evenodd" class="shp0" d="M0 3.58L2.13 3.58C4.38 3.58 4.66 3.6 5.06 3.8C5.16 3.85 5.3 3.96 5.37 4.03C5.65 4.32 5.64 4.23 5.64 7.53L5.64 10.54L5.52 10.78C5.45 10.93 5.34 11.05 5.21 11.14C4.82 11.39 4.64 11.42 3.3 11.44L2.07 11.46L2.07 14.88L0 14.88L0 3.58ZM3.57 4.94L2.07 4.94L2.07 10.09L3.57 10.09L3.57 4.94Z" />
		<path id="Layer" fill-rule="evenodd" class="shp0" d="M10.91 3.64C11.49 3.77 11.83 4.03 11.93 4.45C11.97 4.59 11.99 5.76 11.99 8.05L11.99 11.46L9.67 11.44C7.02 11.42 7.03 11.42 6.62 11.03C6.3 10.73 6.29 10.65 6.31 9.02C6.32 7.64 6.32 7.63 6.44 7.42C6.58 7.18 6.83 7 7.19 6.88C7.4 6.82 7.68 6.79 8.66 6.78L9.87 6.76L9.87 4.94L8.41 4.94L8.41 5.2C8.41 5.35 8.4 5.59 8.39 5.72L8.35 5.97L6.35 5.97L6.35 5.24C6.35 4.43 6.38 4.28 6.64 4.01C6.82 3.83 7.2 3.68 7.61 3.63C8.18 3.56 10.57 3.57 10.91 3.64ZM9.87 8.13L8.41 8.13L8.41 10.09L9.87 10.09L9.87 8.13Z" />
		<path id="Layer" fill-rule="evenodd" class="shp0" d="M16.32 3.58L18.47 3.58L18.47 8.79C18.47 13.82 18.47 14.02 18.38 14.2C18.27 14.43 17.99 14.65 17.65 14.77C17.3 14.88 14.38 14.92 13.87 14.81C13.44 14.72 13.15 14.55 12.98 14.3C12.86 14.11 12.86 14.09 12.84 13.3L12.83 12.48L14.9 12.48L14.9 13.52L16.4 13.52L16.4 11.46L15.17 11.44C13.82 11.42 13.66 11.39 13.25 11.13C13.1 11.04 13 10.93 12.93 10.79C12.83 10.58 12.83 10.56 12.84 7.53C12.84 5.32 12.86 4.45 12.89 4.34C13.02 4.01 13.37 3.76 13.88 3.65C14.1 3.6 14.72 3.58 16.32 3.58ZM16.4 4.94L14.9 4.94L14.9 10.09L16.4 10.09L16.4 4.94Z" />
		<path id="Layer" fill-rule="evenodd" class="shp0" d="M22.12 3.6C23.6 3.61 23.78 3.62 24.02 3.7C24.35 3.81 24.7 4.14 24.77 4.4C24.84 4.68 24.84 10.37 24.76 10.63C24.67 10.94 24.37 11.2 23.96 11.32C23.63 11.42 23.56 11.43 21.97 11.43C20.39 11.43 20.31 11.42 19.99 11.32C19.55 11.19 19.27 10.93 19.19 10.6C19.11 10.3 19.11 4.74 19.18 4.45C19.29 4.04 19.62 3.77 20.18 3.65C20.4 3.6 20.86 3.59 22.12 3.6ZM22.75 4.94L21.25 4.94L21.25 10.09L22.69 10.09L22.72 9C22.74 8.41 22.75 7.24 22.75 6.42L22.75 4.94Z" />
	</g>
</svg>