<?xml version="1.0" encoding="UTF-8"?>
<svg width="24px" height="24px" viewBox="0 0 24 24" version="1.1" xmlns="http://www.w3.org/2000/svg" xmlns:xlink="http://www.w3.org/1999/xlink">
    <title>Combined Shape</title>
    <g id="symbols" stroke="none" stroke-width="1" fill="none" fill-rule="evenodd">
        <g id="#/icon/phone" fill="#ffffff">
            <path d="M2.16775,4.86258984 C3.04637467,3.98423048 4.47062533,3.98423048 5.34923007,4.86256992 L5.34923007,4.86256992 L8.00116012,7.5135 C8.42342889,7.93549823 8.66067977,8.50801305 8.66067977,9.105 C8.66067977,9.70198695 8.42342889,10.2745018 8.00141016,10.69625 C7.70862371,10.9891249 7.70862371,11.4638751 8.00139258,11.7567324 L8.00139258,11.7567324 L12.24325,15.9995898 C12.5361249,16.2923763 13.0108751,16.2923763 13.3035,15.9998399 C13.7254982,15.5775711 14.2980131,15.3403202 14.895,15.3403202 C15.4919869,15.3403202 16.0645018,15.5775711 16.4861301,15.99947 L16.4861301,15.99947 L19.1391601,18.6505 C19.5614289,19.0724982 19.7986798,19.6450131 19.7986798,20.242 C19.7986798,20.8389869 19.5614289,21.4115018 19.1393301,21.8333301 L19.1393301,21.8333301 L18.5105162,22.4621439 C16.7703315,24.2035505 14.0538213,24.5018815 11.9449641,23.1579665 C7.56790167,20.1997632 3.79814446,16.4302917 0.817872923,12.019341 C-0.500583585,9.94368193 -0.201716106,7.23050298 1.53809131,5.49124885 L1.53809131,5.49124885 Z M4.28875,5.92341016 C3.99587511,5.63062371 3.52112489,5.63062371 3.22790869,5.92375115 L3.22790869,5.92375115 L2.59824577,6.55241439 C1.3583358,7.79193019 1.14317739,9.72447187 2.08866513,11.2227904 L2.08866513,11.2227904 L2.46500132,11.7693405 C5.25704734,15.7528047 8.75593101,19.1931224 12.7898704,21.918543 L12.7898704,21.918543 L12.9750736,22.0289266 C14.4304271,22.8387523 16.2595331,22.5926424 17.4496699,21.4016699 L17.4496699,21.4016699 L18.0788399,20.7725 C18.2195961,20.6318339 18.2986798,20.4409956 18.2986798,20.242 C18.2986798,20.0430044 18.2195961,19.8521661 18.0788699,19.71153 L18.0788699,19.71153 L15.4255,17.0601601 C15.2848339,16.9194039 15.0939956,16.8403202 14.895,16.8403202 C14.6960044,16.8403202 14.5051661,16.9194039 14.36425,17.0604102 C13.4856253,17.9387695 12.0613747,17.9387695 11.1826074,17.0602676 L11.1826074,17.0602676 L6.94058984,12.81725 C6.06223048,11.9386253 6.06223048,10.5143747 6.94083988,9.6355 C7.08159614,9.49483392 7.16067977,9.30399565 7.16067977,9.105 C7.16067977,8.90600435 7.08159614,8.71516608 6.94076993,8.57443008 L6.94076993,8.57443008 Z M11.25,7.5 C14.1494949,7.5 16.5,9.85050506 16.5,12.75 C16.5,13.1642136 16.1642136,13.5 15.75,13.5 C15.3357864,13.5 15,13.1642136 15,12.75 C15,10.6789322 13.3210678,9 11.25,9 C10.8357864,9 10.5,8.66421356 10.5,8.25 C10.5,7.83578644 10.8357864,7.5 11.25,7.5 Z M11.25,3.75 C16.2205627,3.75 20.25,7.77943725 20.25,12.75 C20.25,13.1642136 19.9142136,13.5 19.5,13.5 C19.0857864,13.5 18.75,13.1642136 18.75,12.75 C18.75,8.60786438 15.3921356,5.25 11.25,5.25 C10.8357864,5.25 10.5,4.91421356 10.5,4.5 C10.5,4.08578644 10.8357864,3.75 11.25,3.75 Z M11.25,0 C18.2916306,0 24,5.70836944 24,12.75 C24,13.1642136 23.6642136,13.5 23.25,13.5 C22.8357864,13.5 22.5,13.1642136 22.5,12.75 C22.5,6.53679656 17.4632034,1.5 11.25,1.5 C10.8357864,1.5 10.5,1.16421356 10.5,0.75 C10.5,0.335786438 10.8357864,0 11.25,0 Z" id="Combined-Shape"></path>
        </g>
    </g>
</svg>