<svg width="20px" height="24px" viewBox="0 0 20 24" version="1.1" xmlns="http://www.w3.org/2000/svg" xmlns:xlink="http://www.w3.org/1999/xlink">
    <g id="symbols" stroke="none" stroke-width="1" fill="none" fill-rule="evenodd">
        <g id="#/icon/pin" transform="translate(-2.000000, 0.000000)" fill="#ffffff">
            <path d="M12,0.00400013411 C17.3847763,0.00400013411 21.75,4.36922379 21.75,9.75400013 C21.75,13.4686882 20.3232525,16.7202249 17.8855763,19.497838 C16.2595706,21.350592 14.4235336,22.7456444 12.742996,23.7052442 C12.282265,23.9684175 11.716735,23.9684175 11.2558132,23.7051351 C9.57419877,22.7439295 7.73951864,21.3493416 6.11387839,19.4966613 C3.6765268,16.7189045 2.25,13.4677826 2.25,9.75400013 C2.25,4.36922379 6.6152237,0.00400013411 12,0.00400013411 Z M12,1.50400013 C7.44365082,1.50400013 3.75,5.19765091 3.75,9.75400013 C3.75,13.0716985 5.02845868,15.9853662 7.24137161,18.5073388 C8.6282137,20.0878699 10.1898994,21.3154366 11.6399695,22.1911556 L11.999996,22.4027558 L12.3589715,22.1913882 C13.8084135,21.316783 15.3710941,20.0889216 16.7581737,18.5084121 C18.9713493,15.9866066 20.25,13.0725803 20.25,9.75400013 C20.25,5.19765091 16.5563492,1.50400013 12,1.50400013 Z M12,8 C12.8284271,8 13.5,8.67157288 13.5,9.5 C13.5,10.3284271 12.8284271,11 12,11 C11.1715729,11 10.5,10.3284271 10.5,9.5 C10.5,8.67157288 11.1715729,8 12,8 Z" id="Combined-Shape"></path>
        </g>
    </g>
</svg>