<?xml version="1.0" encoding="UTF-8" standalone="no"?>
<!DOCTYPE svg PUBLIC "-//W3C//DTD SVG 1.1//EN" "http://www.w3.org/Graphics/SVG/1.1/DTD/svg11.dtd">
<svg width="100%" height="100%" viewBox="0 0 56 56" version="1.1" xmlns="http://www.w3.org/2000/svg" xmlns:xlink="http://www.w3.org/1999/xlink" xml:space="preserve" xmlns:serif="http://www.serif.com/" style="fill-rule:evenodd;clip-rule:evenodd;stroke-linejoin:round;stroke-miterlimit:2;">
    <g transform="matrix(1,0,0,1,388.042,56.749)">
        <g transform="matrix(0.997033,0,0,0.997033,-680.19,-503.8)">
            <circle cx="321.101" cy="476.465" r="28.083" style="fill:white;"/>
        </g>
        <g transform="matrix(7.83508e-17,1.27957,-1.07282,6.56913e-17,152.847,-405.046)">
            <path d="M292.866,472.065C293.14,471.466 293.666,471.092 294.239,471.092C294.811,471.092 295.338,471.466 295.611,472.065C296.654,474.348 298.099,477.513 299.249,480.034C299.645,480.901 299.628,481.951 299.206,482.8C298.783,483.648 298.017,484.168 297.19,484.168C295.339,484.168 293.138,484.168 291.287,484.168C290.46,484.168 289.694,483.648 289.271,482.8C288.849,481.951 288.832,480.901 289.228,480.034C290.379,477.513 291.824,474.348 292.866,472.065Z" style="fill:rgb(6,67,115);"/>
        </g>
    </g>
</svg>
