<?xml version="1.0" encoding="UTF-8"?>
<svg width="56px" height="56px" viewBox="0 0 56 56" version="1.1" xmlns="http://www.w3.org/2000/svg" xmlns:xlink="http://www.w3.org/1999/xlink">
    <title>#/BUTTON/floating/Icon/Container</title>
    <g id="6.AREA-PERSONALE" stroke="none" stroke-width="1" fill="none" fill-rule="evenodd">
        <g id="M_SERVIZI_ricerca-—-area-personale.2" transform="translate(-279.000000, -927.000000)">
            <g id="Group-7-Copy-4" transform="translate(10.000000, 767.000000)">
                <g id="Group-2" transform="translate(0.000000, 144.000000)">
                    <g id="#/BUTTON/floating/Icon/Container" transform="translate(269.000000, 16.000000)">
                        <circle id="Oval" fill="#39546B" cx="28" cy="28" r="28"></circle>
                        <g id="#/icon/servizi" transform="translate(16.000000, 16.000000)" fill="#F9F9F9">
                            <path d="M14.379,0.011 C14.9753433,0.011 15.5472999,0.247910045 15.9693301,0.669669914 L15.9693301,0.669669914 L21.8415,6.54183987 C22.26309,6.96370009 22.5,7.53565668 22.5,8.132 L22.5,8.132 L22.5,21.761 C22.5,23.0036407 21.4926407,24.011 20.25,24.011 L20.25,24.011 L3.75,24.011 C2.50735931,24.011 1.5,23.0036407 1.5,21.761 L1.5,21.761 L1.5,2.261 C1.5,1.01835931 2.50735931,0.011 3.75,0.011 L3.75,0.011 Z M13.5,1.511 L3.75,1.511 C3.33578644,1.511 3,1.84678644 3,2.261 L3,2.261 L3,21.761 C3,22.1752136 3.33578644,22.511 3.75,22.511 L3.75,22.511 L20.25,22.511 C20.6642136,22.511 21,22.1752136 21,21.761 L21,21.761 L21,9.011 L15.75,9.011 C14.559136,9.011 13.5843551,8.08583841 13.5051908,6.91504881 L13.5,6.761 L13.5,1.511 Z M10.1190675,15.7690507 C10.4202883,15.9950193 10.5031302,16.4040813 10.328952,16.7255315 L10.2689493,16.8190675 L8.13671697,19.6613771 C7.87570888,20.0089325 7.47677662,20.226183 7.04321259,20.2568778 C6.66384406,20.2837358 6.29060292,20.165451 5.99727441,19.9295508 L5.87666991,19.8213301 L4.71966991,18.6643301 C4.4267767,18.3714369 4.4267767,17.8965631 4.71966991,17.6036699 C4.98593648,17.3374034 5.40260016,17.3131973 5.69621165,17.5310518 L5.78033009,17.6036699 L6.93728303,18.7606229 L9.06905067,15.9189325 C9.31761611,15.5875896 9.78772468,15.5204852 10.1190675,15.7690507 Z M17.25,18.011 C17.6642136,18.011 18,18.3467864 18,18.761 C18,19.1406958 17.7178461,19.454491 17.3517706,19.5041534 L17.25,19.511 L12.75,19.511 C12.3357864,19.511 12,19.1752136 12,18.761 C12,18.3813042 12.2821539,18.067509 12.6482294,18.0178466 L12.75,18.011 L17.25,18.011 Z M17.25,12.011 C17.6642136,12.011 18,12.3467864 18,12.761 C18,13.1406958 17.7178461,13.454491 17.3517706,13.5041534 L17.25,13.511 L12.75,13.511 C12.3357864,13.511 12,13.1752136 12,12.761 C12,12.3813042 12.2821539,12.067509 12.6482294,12.0178466 L12.75,12.011 L17.25,12.011 Z M10.1190675,9.01905067 C10.4202883,9.24501925 10.5031302,9.65408133 10.328952,9.97553155 L10.2689493,10.0690675 L8.13671697,12.9113771 C7.87570888,13.2589325 7.47677662,13.476183 7.04321259,13.5068778 C6.66384406,13.5337358 6.29060292,13.415451 5.99742804,13.1797044 L5.87689925,13.0715593 L4.71989925,11.9155593 C4.42687943,11.6227928 4.42667412,11.1479191 4.71944068,10.8548992 C4.9855921,10.5885176 5.40224528,10.5641314 5.69595093,10.7818589 L5.78010075,10.8544407 L6.93728303,12.0106229 L9.06905067,9.16893245 C9.31761611,8.83758958 9.78772468,8.77048522 10.1190675,9.01905067 Z M15,1.822 L15,6.761 C15,7.14069577 15.2821539,7.45449096 15.6482294,7.50415338 L15.75,7.511 L20.689,7.511 L15,1.822 Z" id="Combined-Shape"></path>
                        </g>
                    </g>
                </g>
            </g>
        </g>
    </g>
</svg>