<svg xmlns="http://www.w3.org/2000/svg" viewBox="0 0 56 56" width="56" height="56">
	<style>
		tspan { white-space:pre }
		.shp0 { fill: #ffffff } 
		.shp1 { fill: #0d3c27 } 
	</style>
	<g id="6.AREA-PERSONALE">
		<g id="M_SERVIZI_ricerca-—-area-personale.2">
			<g id="Group-7-Copy-6">
				<g id="Group-2">
					<g id="#/BUTTON/floating/Icon/Container">
						<path id="Oval" class="shp0" d="M28 56C12.52 56 0 43.48 0 28C0 12.52 12.52 0 28 0C43.48 0 56 12.52 56 28C56 43.48 43.48 56 28 56Z" />
						<g id="Group">
							<g id="#/icon/servizi">
								<path id="Combined-Shape" fill-rule="evenodd" class="shp1" d="M22.75 26.5C26.42 26.5 29.5 28.04 29.5 30.25L29.5 36.25C29.5 38.46 26.43 40 22.75 40C19.16 40 16.15 38.54 16.01 36.41L16 36.25L16 30.25L16.01 30.09C16.15 27.96 19.16 26.5 22.75 26.5ZM22.75 37C20.65 37 18.75 36.5 17.5 35.65L17.5 36.25C17.5 37.35 19.8 38.5 22.75 38.5C25.61 38.5 27.86 37.42 27.99 36.35L28 36.25L28 35.65C26.75 36.5 24.85 37 22.75 37ZM28 32.65C26.75 33.5 24.85 34 22.75 34C20.65 34 18.75 33.5 17.5 32.65L17.5 33.25C17.5 34.35 19.8 35.5 22.75 35.5C25.61 35.5 27.86 34.42 27.99 33.35L28 33.25L28 32.65ZM37.75 16C38.94 16 39.92 16.93 39.99 18.1L40 18.25L40 30.25C40 31.44 39.07 32.42 37.9 32.49L37.75 32.5L31.75 32.5C31.34 32.5 31 32.16 31 31.75C31 31.37 31.28 31.06 31.65 31.01L31.75 31L37.75 31C38.13 31 38.44 30.72 38.49 30.35L38.5 30.25L38.5 18.25C38.5 17.87 38.22 17.56 37.85 17.51L37.75 17.5L18.25 17.5C17.87 17.5 17.56 17.78 17.51 18.15L17.5 18.25L17.5 25.76C17.5 26.17 17.16 26.51 16.75 26.51C16.37 26.51 16.06 26.22 16.01 25.86L16 25.76L16 18.25C16 17.06 16.93 16.08 18.1 16.01L18.25 16L37.75 16ZM22.75 28C19.8 28 17.5 29.15 17.5 30.25C17.5 31.35 19.8 32.5 22.75 32.5C25.7 32.5 28 31.35 28 30.25C28 29.15 25.7 28 22.75 28ZM35.5 26.88L35.62 26.88C36.19 26.94 36.63 27.42 36.63 28C36.63 28.62 36.12 29.13 35.5 29.13C34.88 29.13 34.38 28.62 34.38 28C34.38 27.42 34.81 26.94 35.38 26.88L35.5 26.88ZM31.33 22.52C32.12 24.05 31.77 25.93 30.47 27.07C30.16 27.34 29.69 27.31 29.42 27C29.14 26.69 29.17 26.21 29.48 25.94C30.26 25.26 30.47 24.13 30 23.21C29.52 22.29 28.47 21.82 27.47 22.06C26.51 22.3 25.83 23.12 25.76 24.08L25.75 24.25C25.75 24.66 25.41 25 25 25C24.59 25 24.25 24.66 24.25 24.25C24.25 22.52 25.43 21.02 27.11 20.61C28.79 20.2 30.53 20.99 31.33 22.52ZM20.5 19.38L20.62 19.38C21.19 19.44 21.63 19.92 21.63 20.5C21.63 21.12 21.12 21.63 20.5 21.63C19.88 21.63 19.38 21.12 19.38 20.5C19.38 19.92 19.81 19.44 20.38 19.38L20.5 19.38Z" />
							</g>
						</g>
					</g>
				</g>
			</g>
		</g>
	</g>
</svg>