<svg xmlns="http://www.w3.org/2000/svg" viewBox="0 0 56 56" width="56" height="56">
	<style>
		tspan { white-space:pre }
		.shp0 { fill: #ffffff } 
		.shp1 { fill: #0d3c27 } 
	</style>
	<g id="6.AREA-PERSONALE">
		<g id="M_SERVIZI_ricerca-—-area-personale.2">
			<g id="Group-7-Copy-4">
				<g id="Group-2">
					<g id="#/BUTTON/floating/Icon/Container">
						<path id="Oval" class="shp0" d="M28 56C12.52 56 0 43.48 0 28C0 12.52 12.52 0 28 0C43.48 0 56 12.52 56 28C56 43.48 43.48 56 28 56Z" />
						<g id="#/icon/servizi">
							<path id="Combined-Shape" fill-rule="evenodd" class="shp1" d="M30.38 16.01C30.98 16.01 31.55 16.25 31.97 16.67L37.84 22.54C38.26 22.96 38.5 23.54 38.5 24.13L38.5 37.76C38.5 39 37.49 40.01 36.25 40.01L19.75 40.01C18.51 40.01 17.5 39 17.5 37.76L17.5 18.26C17.5 17.02 18.51 16.01 19.75 16.01L30.38 16.01ZM29.5 17.51L19.75 17.51C19.34 17.51 19 17.85 19 18.26L19 37.76C19 38.18 19.34 38.51 19.75 38.51L36.25 38.51C36.66 38.51 37 38.18 37 37.76L37 25.01L31.75 25.01C30.56 25.01 29.58 24.09 29.51 22.92L29.5 22.76L29.5 17.51ZM26.12 31.77C26.42 32 26.5 32.4 26.33 32.73L26.27 32.82L24.14 35.66C23.88 36.01 23.48 36.23 23.04 36.26C22.66 36.28 22.29 36.17 22 35.93L21.88 35.82L20.72 34.66C20.43 34.37 20.43 33.9 20.72 33.6C20.99 33.34 21.4 33.31 21.7 33.53L21.78 33.6L22.94 34.76L25.07 31.92C25.32 31.59 25.79 31.52 26.12 31.77ZM33.25 34.01C33.66 34.01 34 34.35 34 34.76C34 35.14 33.72 35.45 33.35 35.5L33.25 35.51L28.75 35.51C28.34 35.51 28 35.18 28 34.76C28 34.38 28.28 34.07 28.65 34.02L28.75 34.01L33.25 34.01ZM33.25 28.01C33.66 28.01 34 28.35 34 28.76C34 29.14 33.72 29.45 33.35 29.5L33.25 29.51L28.75 29.51C28.34 29.51 28 29.18 28 28.76C28 28.38 28.28 28.07 28.65 28.02L28.75 28.01L33.25 28.01ZM26.12 25.02C26.42 25.25 26.5 25.65 26.33 25.98L26.27 26.07L24.14 28.91C23.88 29.26 23.48 29.48 23.04 29.51C22.66 29.53 22.29 29.42 22 29.18L21.88 29.07L20.72 27.92C20.43 27.62 20.43 27.15 20.72 26.85C20.99 26.59 21.4 26.56 21.7 26.78L21.78 26.85L22.94 28.01L25.07 25.17C25.32 24.84 25.79 24.77 26.12 25.02ZM31 17.82L31 22.76C31 23.14 31.28 23.45 31.65 23.5L31.75 23.51L36.69 23.51L31 17.82Z" />
						</g>
					</g>
				</g>
			</g>
		</g>
	</g>
</svg>