<?xml version="1.0" encoding="UTF-8"?>
<svg width="56px" height="56px" viewBox="0 0 56 56" version="1.1" xmlns="http://www.w3.org/2000/svg" xmlns:xlink="http://www.w3.org/1999/xlink">
    <title>#/BUTTON/floating/Icon/Container</title>
    <g id="6.AREA-PERSONALE" stroke="none" stroke-width="1" fill="none" fill-rule="evenodd">
        <g id="M_SERVIZI_ricerca-—-area-personale.2" transform="translate(-279.000000, -1839.000000)">
            <g id="Group-7-Copy-6" transform="translate(10.000000, 1711.000000)">
                <g id="Group-2" transform="translate(0.000000, 112.000000)">
                    <g id="#/BUTTON/floating/Icon/Container" transform="translate(269.000000, 16.000000)">
                        <circle id="Oval" fill="#39546B" cx="28" cy="28" r="28"></circle>
                        <g id="Group" transform="translate(16.000000, 16.000000)" fill="#FFFFFF" fill-rule="nonzero">
                            <g id="#/icon/servizi">
                                <path d="M6.75,10.5 C10.4247765,10.5 13.5,12.0376118 13.5,14.25 L13.5,14.25 L13.5,20.25 C13.5,22.462534 10.425068,24 6.75,24 C3.16456783,24 0.150353695,22.5366177 0.00545177584,20.4106755 L0,20.25 L0,14.25 L0.00545228338,14.0893347 C0.150367568,11.963521 3.16485222,10.5 6.75,10.5 Z M6.75,21 C4.65004169,21 2.74603111,20.4980088 1.49968467,19.6549218 L1.5,20.25 C1.5,21.351466 3.79706798,22.5 6.75,22.5 C9.61344923,22.5 11.8601815,21.4200195 11.9937177,20.3502297 L12,20.25 L12.001319,19.6542427 C10.7549912,20.4977392 8.85052206,21 6.75,21 Z M12.0012272,16.6541815 C10.7548484,17.4976916 8.85035545,18 6.75,18 C4.65020826,18 2.74617389,17.4979612 1.49977646,16.6548606 L1.5,17.25 C1.5,18.351466 3.79706798,19.5 6.75,19.5 C9.61344923,19.5 11.8601815,18.4200195 11.9937177,17.3502297 L12,17.25 Z M6.75,12 C3.79735948,12 1.5,13.1486797 1.5,14.25 C1.5,15.3513203 3.79735948,16.5 6.75,16.5 C9.70264052,16.5 12,15.3513203 12,14.25 C12,13.1486797 9.70264052,12 6.75,12 Z M21.75,0 C22.940864,0 23.9156449,0.925161591 23.9948092,2.09595119 L24,2.25 L24,14.25 C24,15.440864 23.0748384,16.4156449 21.9040488,16.4948092 L21.75,16.5 L15.75,16.5 C15.3357864,16.5 15,16.1642136 15,15.75 C15,15.3703042 15.2821539,15.056509 15.6482294,15.0068466 L15.75,15 L21.75,15 C22.1296958,15 22.443491,14.7178461 22.4931534,14.3517706 L22.5,14.25 L22.5,2.25 C22.5,1.87030423 22.2178461,1.55650904 21.8517706,1.50684662 L21.75,1.5 L2.25,1.5 C1.87030423,1.5 1.55650904,1.78215388 1.50684662,2.14822944 L1.5,2.25 L1.5,9.757 C1.5,10.1712136 1.16421356,10.507 0.75,10.507 C0.370304234,10.507 0.0565090391,10.2248461 0.006846616,9.85877056 L0,9.757 L0,2.25 C0,1.05913601 0.925161591,0.084355084 2.09595119,0.00519081254 L2.25,0 L21.75,0 Z M19.5,10.875 L19.6225811,10.8816013 C20.1862391,10.9426801 20.625,11.420101 20.625,12 C20.625,12.6213203 20.1213203,13.125 19.5,13.125 C18.8786797,13.125 18.375,12.6213203 18.375,12 C18.375,11.420101 18.8137609,10.9426801 19.3774189,10.8816013 L19.5,10.875 Z M15.3258603,6.51794146 C16.1239078,8.05004695 15.7720606,9.92910013 14.47375,11.0686687 C14.1624444,11.3419116 13.6885742,11.3110556 13.4153313,10.99975 C13.1420884,10.6884444 13.1729444,10.2145742 13.48425,9.94133127 C14.2632364,9.25759012 14.4743447,8.13015821 13.9955162,7.21089492 C13.5166877,6.29163162 12.4718275,5.81841216 11.4650537,6.0648429 C10.5142117,6.29758304 9.82971921,7.11535371 9.75650457,8.078664 L9.75,8.25008127 C9.74995511,8.66429483 9.41413229,9.00004488 8.99991873,9 C8.58570517,8.99996437 8.25,8.66413229 8.25,8.24991873 C8.2501872,6.5224272 9.43046633,5.01857266 11.1084228,4.60785477 C12.7863792,4.19713688 14.5278128,4.98583597 15.3258603,6.51794146 Z M4.5,3.375 L4.62258114,3.38160135 C5.18623905,3.44268014 5.625,3.92010101 5.625,4.5 C5.625,5.12132034 5.12132034,5.625 4.5,5.625 C3.87867966,5.625 3.375,5.12132034 3.375,4.5 C3.375,3.92010101 3.81376095,3.44268014 4.37741886,3.38160135 L4.5,3.375 Z" id="Combined-Shape"></path>
                            </g>
                        </g>
                    </g>
                </g>
            </g>
        </g>
    </g>
</svg>