<svg xmlns="http://www.w3.org/2000/svg" viewBox="0 0 56 56" width="56" height="56">
	<style>
		tspan { white-space:pre }
		.shp0 { fill: #ffffff } 
		.shp1 { fill: #0d3c27 } 
	</style>
	<g id="6.AREA-PERSONALE">
		<g id="M_SERVIZI_ricerca-—-area-personale.2">
			<g id="Group-7-Copy-8">
				<g id="Group-2">
					<g id="#/BUTTON/floating/Icon/Container">
						<path id="Oval" class="shp0" d="M28 56C12.52 56 0 43.48 0 28C0 12.52 12.52 0 28 0C43.48 0 56 12.52 56 28C56 43.48 43.48 56 28 56Z" />
						<g id="Group">
							<g id="#/icon/servizi">
								<path id="Combined-Shape" fill-rule="evenodd" class="shp1" d="M28 16C31.31 16 34.3 17.34 36.47 19.5L36.49 19.51C36.49 19.52 36.49 19.52 36.5 19.53C38.66 21.7 40 24.69 40 28C40 34.63 34.63 40 28 40C24.69 40 21.7 38.66 19.53 36.5L19.51 36.49C19.51 36.48 19.51 36.48 19.5 36.47C17.34 34.3 16 31.31 16 28C16 21.37 21.37 16 28 16ZM35.94 21.12L21.12 35.94C22.97 37.53 25.37 38.5 28 38.5C33.8 38.5 38.5 33.8 38.5 28C38.5 25.37 37.53 22.97 35.94 21.12ZM28 17.5C22.2 17.5 17.5 22.2 17.5 28C17.5 30.63 18.47 33.03 20.06 34.88L34.88 20.06C33.03 18.47 30.63 17.5 28 17.5Z" />
							</g>
						</g>
					</g>
				</g>
			</g>
		</g>
	</g>
</svg>