<?xml version="1.0" encoding="UTF-8"?>
<svg width="56px" height="56px" viewBox="0 0 56 56" version="1.1" xmlns="http://www.w3.org/2000/svg" xmlns:xlink="http://www.w3.org/1999/xlink">
    <title>#/BUTTON/floating/Icon/Container</title>
    <g id="6.AREA-PERSONALE" stroke="none" stroke-width="1" fill="none" fill-rule="evenodd">
        <g id="M_SERVIZI_ricerca-—-area-personale.2" transform="translate(-279.000000, -2751.000000)">
            <g id="Group-7-Copy-8" transform="translate(10.000000, 2591.000000)">
                <g id="Group-2" transform="translate(0.000000, 144.000000)">
                    <g id="#/BUTTON/floating/Icon/Container" transform="translate(269.000000, 16.000000)">
                        <circle id="Oval" fill="#0D3C27" cx="28" cy="28" r="28"></circle>
                        <g id="Group" transform="translate(16.000000, 16.000000)" fill="#FFFFFF" fill-rule="nonzero">
                            <g id="#/icon/servizi">
                                <path d="M12,0 C15.3070811,0 18.3017072,1.33777854 20.472242,3.50169913 L20.4853301,3.51466991 C20.4897679,3.51910769 20.4941384,3.52358724 20.4984417,3.52810731 C22.6622215,5.69829276 24,8.69291892 24,12 C24,18.627417 18.627417,24 12,24 C8.69291892,24 5.69829276,22.6622215 3.527758,20.4983009 L3.51466991,20.4853301 C3.51023214,20.4808923 3.5058616,20.4764128 3.5015583,20.4718927 C1.33777854,18.3017072 0,15.3070811 0,12 C0,5.372583 5.372583,0 12,0 Z M19.9358992,5.12432135 L5.12432135,19.9358992 C6.96644349,21.5333061 9.37033001,22.5 12,22.5 C17.7989899,22.5 22.5,17.7989899 22.5,12 C22.5,9.37033001 21.5333061,6.96644349 19.9358992,5.12432135 Z M12,1.5 C6.20101013,1.5 1.5,6.20101013 1.5,12 C1.5,14.62967 2.46669392,17.0335565 4.06410082,18.8756786 L18.8756786,4.06410082 C17.0335565,2.46669392 14.62967,1.5 12,1.5 Z" id="Combined-Shape"></path>
                            </g>
                        </g>
                    </g>
                </g>
            </g>
        </g>
    </g>
</svg>