<?xml version="1.0" encoding="UTF-8"?>
<svg width="56px" height="56px" viewBox="0 0 56 56" version="1.1" xmlns="http://www.w3.org/2000/svg" xmlns:xlink="http://www.w3.org/1999/xlink">
    <title>#/BUTTON/floating/Icon/Container</title>
    <g id="6.AREA-PERSONALE" stroke="none" stroke-width="1" fill="none" fill-rule="evenodd">
        <g id="M_SERVIZI_ricerca-—-area-personale.2" transform="translate(-279.000000, -2279.000000)" fill-rule="nonzero">
            <g id="Group-7-Copy-7" transform="translate(10.000000, 2151.000000)">
                <g id="Group-2" transform="translate(0.000000, 112.000000)">
                    <g id="#/BUTTON/floating/Icon/Container" transform="translate(269.000000, 16.000000)">
                        <circle id="Oval" fill="#008A00" cx="28" cy="28" r="28"></circle>
                        <g id="#/icon/servizi" transform="translate(16.000000, 16.000000)" fill="#FFFFFF">
                            <path d="M9.43616552,1.95988007 L9.56955861,2.09726496 L10.4483658,3.07016005 C10.6524161,3.29678737 10.9430468,3.426187 11.248,3.426187 C11.5093885,3.426187 11.7602543,3.33111789 11.9556022,3.16067586 L12.0484414,3.06926496 L12.9274804,2.09611709 C13.6600011,1.28852949 14.8212356,1.02884651 15.8279741,1.44748942 C16.2104372,1.60653314 16.3915543,2.0455111 16.2325106,2.42797413 C16.0867205,2.77856524 15.7057079,2.95996987 15.3486243,2.86526516 L15.2520259,2.83251058 C14.8729473,2.67487424 14.4415119,2.74711383 14.1363554,3.00861427 L14.0395586,3.10273504 L13.1623658,4.07383995 C12.6738589,4.61639755 11.9780738,4.926187 11.248,4.926187 C10.5842965,4.926187 9.94893087,4.67016266 9.47247898,4.21665372 L9.33444139,4.07473504 L8.45596487,3.102207 C8.15004196,2.76288514 7.66344739,2.65325719 7.24157053,2.82860846 C6.85804611,2.9880187 6.60373833,3.35147173 6.57927224,3.75937488 L6.57892828,3.88291974 L6.64901737,5.19262062 C6.68638778,5.92194673 6.41268309,6.63290334 5.89589193,7.14888786 C5.42608179,7.61796468 4.79545169,7.88589214 4.13765366,7.9018429 L3.93963287,7.899018 L2.63244898,7.83205936 C2.17702074,7.80922833 1.75649128,8.07542358 1.58226354,8.49682699 C1.42545858,8.87609007 1.49868915,9.30722628 1.76198509,9.61256478 L1.85673504,9.70944139 L2.8285164,10.587244 C3.37009159,11.0760585 3.67920002,11.7714499 3.67920002,12.501 C3.67920002,13.1642273 3.42373851,13.7992244 2.97056177,14.2763025 L2.82873504,14.4145586 L1.85630957,15.2929426 C1.51741309,15.5985952 1.40770683,16.0845311 1.58241549,16.5061367 C1.74124154,16.8894144 2.10383091,17.1440169 2.51122835,17.1693581 L2.63463287,17.169982 L3.94268477,17.1029793 C4.67123673,17.0657112 5.38147066,17.3388541 5.89730827,17.8546917 C6.36625155,18.323635 6.63462074,18.9532364 6.65147004,19.6125318 L6.64892828,19.8110803 L6.57894711,21.1187269 C6.55476038,21.5747048 6.82047717,21.9964569 7.24221808,22.1714866 C7.6217849,22.3290134 8.05361608,22.255936 8.35941927,21.9921881 L8.45644139,21.897265 L9.33424398,20.9254836 C9.82305848,20.3839084 10.5184499,20.0748 11.248,20.0748 C11.9112273,20.0748 12.5462244,20.3302615 13.0233025,20.7834382 L13.1615586,20.925265 L14.0404245,21.8982252 C14.3461181,22.237822 14.832697,22.3478101 15.2547342,22.1727124 C15.6384043,22.0135327 15.8929569,21.6501838 15.9175903,21.2412547 L15.917982,21.1173671 L15.8509783,19.8092943 C15.8137437,19.0810001 16.0866993,18.3710066 16.6022193,17.8552179 C17.0708738,17.386319 17.7001326,17.1178029 18.3582108,17.1005643 L18.5563671,17.102982 L19.8648556,17.1700072 C20.3206136,17.1936506 20.7418759,16.9277422 20.9165845,16.5061367 C21.0738223,16.1266917 21.000684,15.6951391 20.7371183,15.3895223 L20.642265,15.2925586 L19.6704836,14.414756 C19.1289084,13.9259415 18.8198,13.2305501 18.8198,12.501 C18.8198,11.8377727 19.0752615,11.2027756 19.5284382,10.7256975 L19.670265,10.5874414 L20.6427809,9.70897583 C20.7652974,9.59851354 20.8603579,9.46174928 20.9212437,9.30960244 L20.9603953,9.19277868 C21.0693176,8.79314284 21.4815855,8.55747298 21.8812213,8.66639531 C22.2808572,8.77531764 22.516527,9.18758549 22.4076047,9.58722132 C22.2963364,9.99546453 22.0865304,10.3689345 21.7982953,10.6751851 L21.647735,10.8225586 L20.6755164,11.700756 C20.4490548,11.9051556 20.3198,12.195936 20.3198,12.501 C20.3198,12.7624834 20.4147627,13.0134728 20.584644,13.2086901 L20.675735,13.3014414 L21.6473096,14.1790574 C22.4577689,14.910015 22.7201276,16.0721141 22.3023179,17.0803692 C21.9077198,18.0326102 20.9871912,18.6527293 19.96836,18.6710811 L19.7876329,18.668018 L18.4800961,18.6010416 C18.1755492,18.5856305 17.8787224,18.6999227 17.6631559,18.9156016 C17.4783846,19.1004692 17.3681326,19.3449995 17.3502054,19.6028262 L17.349018,19.7326329 L17.4159213,21.038789 C17.4745062,22.1299225 16.838843,23.1394615 15.8295555,23.5582016 C14.8796379,23.95231 13.7929958,23.7424949 13.0596783,23.0401661 L12.9264414,22.902735 L12.048244,21.9305164 C11.8438444,21.7040548 11.553064,21.5748 11.248,21.5748 C10.9865166,21.5748 10.7355272,21.6697627 10.5403099,21.839644 L10.4475586,21.930735 L9.56998834,22.9022589 C8.83870716,23.7132253 7.67582155,23.9754896 6.66724264,23.5569119 C5.71469589,23.1615886 5.09496862,22.2399748 5.07779295,21.219873 L5.08107172,21.0389197 L5.15097934,19.7326848 C5.16656317,19.4280381 5.05234745,19.1310513 4.8366481,18.9153519 C4.65176293,18.7304667 4.40715633,18.620141 4.14922713,18.6022046 L4.01936713,18.601018 L2.71185564,18.6679928 C1.62192615,18.7245353 0.614491889,18.0886243 0.196682126,17.0803692 C-0.196550592,16.1314233 0.0127189114,15.0462002 0.714029991,14.3127265 L0.851264963,14.1794414 L1.8234836,13.301244 C2.04994521,13.0968444 2.17920002,12.806064 2.17920002,12.501 C2.17920002,12.2395166 2.0842373,11.9885272 1.91435602,11.7933099 L1.82326496,11.7005586 L0.851616661,10.8228761 C0.0419123437,10.0924049 -0.220591084,8.93148143 0.196068576,7.92370963 C0.589580477,6.97192514 1.50848554,6.35121961 2.52757448,6.33122064 L2.70836713,6.333982 L4.01754937,6.40104349 C4.32249493,6.41714644 4.61996242,6.30316037 4.83606051,6.08739958 C5.02128744,5.90246177 5.13183459,5.65762562 5.14985481,5.40046648 L5.15107172,5.27108026 L5.08109968,3.96359935 C5.02195544,2.87261777 5.65694871,1.86283803 6.66585273,1.44349149 C7.61540946,1.0488124 8.70206366,1.25783093 9.43616552,1.95988007 Z M23.7311846,0.677386295 C24.0191828,0.919982171 24.0788244,1.33306502 23.8867957,1.64418117 L23.8216137,1.73418456 L13.0336268,14.541169 C12.5918442,15.0656611 11.934986,15.3600494 11.2494991,15.3407729 C10.6211362,15.3231027 10.031603,15.0436352 9.62055295,14.5745506 L9.51297851,14.4419714 L6.99997851,11.0909714 C6.7514662,10.7595886 6.81864593,10.2894908 7.15002865,10.0409785 C7.45128566,9.81505823 7.86718325,9.85004046 8.12702224,10.1072407 L8.20002149,10.1910286 L10.7128732,13.541831 C10.8500763,13.7246611 11.0631684,13.8349401 11.291664,13.8413656 C11.482077,13.8467202 11.665863,13.7794672 11.8070638,13.6557166 L11.8863863,13.5748154 L22.6743863,0.767815441 C22.9412418,0.45101734 23.4143865,0.410530832 23.7311846,0.677386295 Z" id="Combined-Shape"></path>
                        </g>
                    </g>
                </g>
            </g>
        </g>
    </g>
</svg>