<svg xmlns="http://www.w3.org/2000/svg" viewBox="0 0 56 56" width="56" height="56">
	<style>
		tspan { white-space:pre }
		.shp0 { fill: #ffffff } 
		.shp1 { fill: #0d3c27 } 
	</style>
	<g id="6.AREA-PERSONALE">
		<g id="M_SERVIZI_ricerca-—-area-personale.2">
			<g id="Group-7-Copy-7">
				<g id="Group-2">
					<g id="#/BUTTON/floating/Icon/Container">
						<path id="Oval" class="shp0" d="M28 56C12.52 56 0 43.48 0 28C0 12.52 12.52 0 28 0C43.48 0 56 12.52 56 28C56 43.48 43.48 56 28 56Z" />
						<g id="#/icon/servizi">
							<path id="Combined-Shape" class="shp1" d="M25.44 17.96L25.57 18.1L26.45 19.07C26.65 19.3 26.94 19.43 27.25 19.43C27.51 19.43 27.76 19.33 27.96 19.16L28.05 19.07L28.93 18.1C29.66 17.29 30.82 17.03 31.83 17.45C32.21 17.61 32.39 18.05 32.23 18.43C32.09 18.78 31.71 18.96 31.35 18.87L31.25 18.83C30.87 18.67 30.44 18.75 30.14 19.01L30.04 19.1L29.16 20.07C28.67 20.62 27.98 20.93 27.25 20.93C26.58 20.93 25.95 20.67 25.47 20.22L25.33 20.07L24.46 19.1C24.15 18.76 23.66 18.65 23.24 18.83C22.86 18.99 22.6 19.35 22.58 19.76L22.58 19.88L22.65 21.19C22.69 21.92 22.41 22.63 21.9 23.15C21.43 23.62 20.8 23.89 20.14 23.9L19.94 23.9L18.63 23.83C18.18 23.81 17.76 24.08 17.58 24.5C17.43 24.88 17.5 25.31 17.76 25.61L17.86 25.71L18.83 26.59C19.37 27.08 19.68 27.77 19.68 28.5C19.68 29.16 19.42 29.8 18.97 30.28L18.83 30.41L17.86 31.29C17.52 31.6 17.41 32.08 17.58 32.51C17.74 32.89 18.1 33.14 18.51 33.17L18.63 33.17L19.94 33.1C20.67 33.07 21.38 33.34 21.9 33.85C22.37 34.32 22.63 34.95 22.65 35.61L22.65 35.81L22.58 37.12C22.55 37.57 22.82 38 23.24 38.17C23.62 38.33 24.05 38.26 24.36 37.99L24.46 37.9L25.33 36.93C25.82 36.38 26.52 36.07 27.25 36.07C27.91 36.07 28.55 36.33 29.02 36.78L29.16 36.93L30.04 37.9C30.35 38.24 30.83 38.35 31.25 38.17C31.64 38.01 31.89 37.65 31.92 37.24L31.92 37.12L31.85 35.81C31.81 35.08 32.09 34.37 32.6 33.86C33.07 33.39 33.7 33.12 34.36 33.1L34.56 33.1L35.86 33.17C36.32 33.19 36.74 32.93 36.92 32.51C37.07 32.13 37 31.7 36.74 31.39L36.64 31.29L35.67 30.41C35.13 29.93 34.82 29.23 34.82 28.5C34.82 27.84 35.08 27.2 35.53 26.73L35.67 26.59L36.64 25.71C36.77 25.6 36.86 25.46 36.92 25.31L36.96 25.19C37.07 24.79 37.48 24.56 37.88 24.67C38.28 24.78 38.52 25.19 38.41 25.59C38.3 26 38.09 26.37 37.8 26.68L37.65 26.82L36.68 27.7C36.45 27.91 36.32 28.2 36.32 28.5C36.32 28.76 36.41 29.01 36.58 29.21L36.68 29.3L37.65 30.18C38.46 30.91 38.72 32.07 38.3 33.08C37.91 34.03 36.99 34.65 35.97 34.67L35.79 34.67L34.48 34.6C34.18 34.59 33.88 34.7 33.66 34.92C33.48 35.1 33.37 35.34 33.35 35.6L33.35 35.73L33.42 37.04C33.47 38.13 32.84 39.14 31.83 39.56C30.88 39.95 29.79 39.74 29.06 39.04L28.93 38.9L28.05 37.93C27.84 37.7 27.55 37.57 27.25 37.57C26.99 37.57 26.74 37.67 26.54 37.84L26.45 37.93L25.57 38.9C24.84 39.71 23.68 39.98 22.67 39.56C21.71 39.16 21.09 38.24 21.08 37.22L21.08 37.04L21.15 35.73C21.17 35.43 21.05 35.13 20.84 34.92C20.65 34.73 20.41 34.62 20.15 34.6L20.02 34.6L18.71 34.67C17.62 34.72 16.61 34.09 16.2 33.08C15.8 32.13 16.01 31.05 16.71 30.31L16.85 30.18L17.82 29.3C18.05 29.1 18.18 28.81 18.18 28.5C18.18 28.24 18.08 27.99 17.91 27.79L17.82 27.7L16.85 26.82C16.04 26.09 15.78 24.93 16.2 23.92C16.59 22.97 17.51 22.35 18.53 22.33L18.71 22.33L20.02 22.4C20.32 22.42 20.62 22.3 20.84 22.09C21.02 21.9 21.13 21.66 21.15 21.4L21.15 21.27L21.08 19.96C21.02 18.87 21.66 17.86 22.67 17.44C23.62 17.05 24.7 17.26 25.44 17.96ZM39.73 16.68C40.02 16.92 40.08 17.33 39.89 17.64L39.82 17.73L29.03 30.54C28.59 31.07 27.93 31.36 27.25 31.34C26.62 31.32 26.03 31.04 25.62 30.57L25.51 30.44L23 27.09C22.75 26.76 22.82 26.29 23.15 26.04C23.45 25.82 23.87 25.85 24.13 26.11L24.2 26.19L26.71 29.54C26.85 29.72 27.06 29.83 27.29 29.84C27.48 29.85 27.67 29.78 27.81 29.66L27.89 29.57L38.67 16.77C38.94 16.45 39.41 16.41 39.73 16.68Z" />
						</g>
					</g>
				</g>
			</g>
		</g>
	</g>
</svg>