<?xml version="1.0" encoding="utf-8"?>
<!-- Generator: Adobe Illustrator 24.1.3, SVG Export Plug-In . SVG Version: 6.00 Build 0)  -->
<svg version="1.1" id="it-search" xmlns="http://www.w3.org/2000/svg" xmlns:xlink="http://www.w3.org/1999/xlink" x="0px" y="0px"
	 viewBox="0 0 24 24" style="enable-background:new 0 0 24 24;" xml:space="preserve">
<style type="text/css">
	.st0{fill-rule:evenodd;clip-rule:evenodd;fill:#30373D;}
</style>
<path class="st0" d="M10.1,2.7c-4,0-7.3,3.3-7.3,7.3c0,4,3.3,7.3,7.3,7.3c2,0,3.8-0.8,5.2-2.1l0,0c0,0,0,0,0,0
	c1.3-1.3,2.1-3.1,2.1-5.2C17.4,6,14.1,2.7,10.1,2.7z M10.1,1.2c4.9,0,8.8,3.9,8.8,8.8c0,2.2-0.8,4.1-2.1,5.7l5.7,5.7
	c0.3,0.3,0.3,0.8,0,1.1c-0.3,0.3-0.8,0.3-1.1,0l-5.7-5.7c-1.5,1.3-3.5,2.1-5.7,2.1c-4.9,0-8.8-3.9-8.8-8.8S5.2,1.2,10.1,1.2z"/>
</svg>
