<?xml version="1.0" encoding="utf-8"?>
<!-- Generator: Adobe Illustrator 23.0.6, SVG Export Plug-In . SVG Version: 6.00 Build 0)  -->
<svg version="1.1" id="Livello_1" xmlns="http://www.w3.org/2000/svg" xmlns:xlink="http://www.w3.org/1999/xlink" x="0px" y="0px"
	 viewBox="0 0 32 32" style="enable-background:new 0 0 32 32;" xml:space="preserve">
<style type="text/css">
	.st0{fill:#ffffff;}
</style>
<path class="st0" d="M31.64,29.92l-7.9-7.9c1.94-2.33,3.12-5.32,3.12-8.59C26.85,6.02,20.83,0,13.43,0C6.02,0,0,6.02,0,13.43
	c0,7.4,6.02,13.43,13.43,13.43c3.26,0,6.26-1.17,8.59-3.12l7.9,7.9c0.24,0.24,0.55,0.36,0.86,0.36s0.62-0.12,0.86-0.36
	C32.12,31.17,32.12,30.39,31.64,29.92z M13.43,24.41c-6.06,0-10.99-4.93-10.99-10.99S7.37,2.44,13.43,2.44s10.99,4.93,10.99,10.99
	S19.49,24.41,13.43,24.41z"/>
</svg>
