<?xml version="1.0" encoding="utf-8"?>
<!-- Generator: Adobe Illustrator 24.1.3, SVG Export Plug-In . SVG Version: 6.00 Build 0)  -->
<svg version="1.1" id="Livello_1" xmlns="http://www.w3.org/2000/svg" xmlns:xlink="http://www.w3.org/1999/xlink" x="0px" y="0px"
	 viewBox="0 0 56 56" enable-background="new 0 0 56 56" xml:space="preserve">
<g>
	<circle fill="#FFFFFF" cx="28" cy="28" r="28"/>
</g>
<path id="Combined-Shape" fill-rule="evenodd" clip-rule="evenodd" fill="#3B76BD" d="M32.8,23.5c-3.3,0-6,2.7-6,6l0,0v2.2
	c0,0.4,0.3,0.8,0.8,0.8l0,0h1.6l0.7,6.8c0,0.4,0.4,0.7,0.7,0.7l0,0H35c0.4,0,0.7-0.3,0.7-0.7l0,0l0.7-6.8H38c0.4,0,0.8-0.3,0.8-0.8
	l0,0v-2.2C38.8,26.2,36.1,23.5,32.8,23.5z M25.5,22c0-0.4-0.3-0.8-0.8-0.8S24,21.6,24,22l0,0v5.3h-4.5c-1.2,0-2.2,0.9-2.2,2.1l0,0.2
	v6.8c0,1.2,1,2.2,2.2,2.2l0,0l3.1,0c0.3,0.9,1.1,1.5,2.1,1.5c1.2,0,2.2-1,2.2-2.2c0-1-0.6-1.8-1.5-2.1L25.5,22z M32.8,25
	c2.5,0,4.5,2,4.5,4.5l0,0V31h-1.5c-0.4,0-0.7,0.3-0.7,0.7l0,0l-0.7,6.8h-3.1l-0.7-6.8c0-0.4-0.4-0.7-0.7-0.7l0,0h-1.5v-1.5
	C28.2,27,30.3,25,32.8,25z M24.7,37C24.8,37,24.8,37,24.7,37c0.4,0,0.8,0.3,0.8,0.8c0,0.4-0.3,0.8-0.8,0.8S24,38.2,24,37.7
	C24,37.3,24.3,37,24.7,37L24.7,37z M19.5,28.8H24l0,6.9c-0.6,0.2-1.1,0.7-1.4,1.4l-3.1,0c-0.4,0-0.8-0.3-0.8-0.8l0,0v-6.8
	C18.8,29.1,19.1,28.8,19.5,28.8L19.5,28.8z M32.8,16c-2.1,0-3.8,1.7-3.8,3.8s1.7,3.8,3.8,3.8s3.8-1.7,3.8-3.8S34.8,16,32.8,16z
	 M32.8,17.5c1.2,0,2.2,1,2.2,2.2c0,1.2-1,2.2-2.2,2.2c-1.2,0-2.3-1-2.3-2.2C30.5,18.5,31.5,17.5,32.8,17.5z"/>
</svg>
