<?xml version="1.0" encoding="UTF-8"?>
<svg width="56px" height="56px" viewBox="0 0 56 56" version="1.1" xmlns="http://www.w3.org/2000/svg" xmlns:xlink="http://www.w3.org/1999/xlink">
    <title>#/BUTTON/floating/Icon/Container</title>
    <g id="2.HOME-TURISMO-&amp;-SERVIZI" stroke="none" stroke-width="1" fill="none" fill-rule="evenodd">
        <g id="Città-Metropolitna_Facile-—-V2" transform="translate(-113.000000, -248.000000)" fill-rule="nonzero">
            <g id="Group" transform="translate(113.000000, 248.000000)">
                <circle id="Oval" fill="#FFFFFF" cx="28" cy="28" r="28"></circle>
                <g transform="translate(16.000000, 16.000000)" fill="#008A00" id="#/icon/servizi">
                    <path d="M0.75,13.5 C1.16421356,13.5 1.5,13.8357864 1.5,14.25 L1.5,14.25 L1.5,15 L6,15 C7.74702516,15 9.21502348,16.1946559 9.63162671,17.8115995 L9.67498641,18 L12.75,18 C14.8210678,18 16.5,19.6789322 16.5,21.75 C16.5,22.1642136 16.1642136,22.5 15.75,22.5 L15.75,22.5 L1.5,22.5 L1.5,23.25 C1.5,23.6296958 1.21784612,23.943491 0.851770557,23.9931534 L0.75,24 C0.335786438,24 0,23.6642136 0,23.25 L0,23.25 L0,14.25 C0,13.8357864 0.335786438,13.5 0.75,13.5 Z M6,16.5 L1.5,16.5 L1.5,21 L14.8719707,21 C14.5812627,20.1775113 13.8258996,19.5745169 12.9212869,19.5064224 L12.75,19.5 L6,19.5 C5.58578644,19.5 5.25,19.1642136 5.25,18.75 C5.25,18.3357864 5.58578644,18 6,18 L6,18 L8.12224108,18.0007654 C7.81357999,17.1264713 6.9799501,16.5 6,16.5 L6,16.5 Z M12.75,4.5 C14.4068542,4.5 15.75,5.84314575 15.75,7.5 C15.75,9.15685425 14.4068542,10.5 12.75,10.5 L12.7603812,10.5000702 C12.7617439,10.5000887 12.7631057,10.5001108 12.7644667,10.5001366 C15.2429129,10.5076404 17.25,12.5194301 17.25,15 C17.25,15.4142136 16.9142136,15.75 16.5,15.75 C16.0857864,15.75 15.75,15.4142136 15.75,15 C15.75,13.3431458 14.4068542,12 12.75,12 C12.7466159,12 12.743237,11.9999776 12.7398636,11.9999329 C11.5515102,12.00336 10.4761848,12.7092893 10.0004387,13.79988 C9.83481961,14.1795419 9.39278198,14.3530579 9.01312005,14.1874387 C8.63345812,14.0218196 8.45994214,13.579782 8.62556127,13.20012 C9.34107571,11.5598892 10.9606424,10.499655 12.7501446,10.4999998 L12.7339628,10.499958 C11.0844873,10.4913243 9.75,9.15150524 9.75,7.5 C9.75,5.84314575 11.0931458,4.5 12.75,4.5 Z M16.8,8.4 C18.1635794,7.37731544 19.9879331,7.21281358 21.5124612,7.97507764 C23.0369893,8.7373417 24,10.2955257 24,12 C24,12.4142136 23.6642136,12.75 23.25,12.75 C22.8357864,12.75 22.5,12.4142136 22.5,12 C22.5,10.8636838 21.8579929,9.82489447 20.8416408,9.31671843 C19.8252887,8.80854238 18.6090529,8.91821029 17.7,9.6 C17.3686292,9.84852814 16.8985281,9.78137085 16.65,9.45 C16.4014719,9.11862915 16.4686292,8.64852814 16.8,8.4 Z M3.98809107,7.97618215 C5.51218517,7.2141351 7.33594434,7.37809347 8.69968019,8.39976028 C9.03118344,8.64811179 9.09859124,9.11817695 8.85023972,9.44968019 C8.60188821,9.78118344 8.13182305,9.84859124 7.80031981,9.60023972 C6.89106158,8.91905286 5.67508707,8.80973513 4.65891147,9.31782293 C3.64273586,9.82591074 3.00060534,10.864281 3,12.0003997 C2.99977916,12.4146132 2.66381382,12.7502206 2.24960032,12.75 C1.83538682,12.7497792 1.49977937,12.4138138 1.5,11.9996003 C1.50090817,10.2956116 2.46399697,8.7382292 3.98809107,7.97618215 Z M12.75,6 C11.9215729,6 11.25,6.67157288 11.25,7.5 C11.25,8.32842712 11.9215729,9 12.75,9 C13.5784271,9 14.25,8.32842712 14.25,7.5 C14.25,6.67157288 13.5784271,6 12.75,6 Z M19.5,0 C21.5710678,0 23.25,1.67893219 23.25,3.75 C23.25,5.82106781 21.5710678,7.5 19.5,7.5 C17.4289322,7.5 15.75,5.82106781 15.75,3.75 C15.75,1.67893219 17.4289322,0 19.5,0 Z M6,0 C8.07106781,0 9.75,1.67893219 9.75,3.75 C9.75,5.82106781 8.07106781,7.5 6,7.5 C3.92893219,7.5 2.25,5.82106781 2.25,3.75 C2.25,1.67893219 3.92893219,0 6,0 Z M19.5,1.5 C18.2573593,1.5 17.25,2.50735931 17.25,3.75 C17.25,4.99264069 18.2573593,6 19.5,6 C20.7426407,6 21.75,4.99264069 21.75,3.75 C21.75,2.50735931 20.7426407,1.5 19.5,1.5 Z M6,1.5 C4.75735931,1.5 3.75,2.50735931 3.75,3.75 C3.75,4.99264069 4.75735931,6 6,6 C7.24264069,6 8.25,4.99264069 8.25,3.75 C8.25,2.50735931 7.24264069,1.5 6,1.5 Z" id="Combined-Shape"></path>
                </g>
            </g>
        </g>
    </g>
</svg>