<?xml version="1.0" encoding="UTF-8"?>
<svg width="22px" height="24px" viewBox="0 0 22 24" version="1.1" xmlns="http://www.w3.org/2000/svg" xmlns:xlink="http://www.w3.org/1999/xlink">
    <g id="symbols" stroke="none" stroke-width="1" fill="none" fill-rule="evenodd">
        <g id="#/icon/luoghi" transform="translate(-2.000000, 0.000000)" fill="#ffffff">
            <path d="M8,7.502 C11.3137085,7.502 14,10.1882915 14,13.502 L14,13.502 L14,15.752 C14,16.1662136 13.6642136,16.502 13.25,16.502 L13.25,16.502 L11.6787407,16.502 L10.9962779,23.3266278 C10.9579378,23.7100291 10.6353136,24.002 10.25,24.002 L10.25,24.002 L5.75,24.002 C5.36468641,24.002 5.04206224,23.7100291 5.00372211,23.3266278 L5.00372211,23.3266278 L4.32125933,16.502 L2.75,16.502 C2.33578644,16.502 2,16.1662136 2,15.752 L2,15.752 L2,13.502 C2,10.1882915 4.6862915,7.502 8,7.502 Z M15.246,6 C15.246,5.58578644 15.5817864,5.25 15.996,5.25 C16.4102136,5.25 16.746,5.58578644 16.746,6 L16.746,6 L16.746,11.252 L21.25,11.252 C22.440864,11.252 23.4156449,12.1771616 23.4948092,13.3479512 L23.5,13.502 L23.5,20.252 C23.5,21.4946407 22.4926407,22.502 21.25,22.502 L21.25,22.502 L18.1171597,22.5022906 C17.8076366,23.3749881 16.974808,24 15.996,24 C14.7533593,24 13.746,22.9926407 13.746,21.75 C13.746,20.7700499 14.3724713,19.93642 15.2467654,19.6277589 Z M8,9.002 C5.51471863,9.002 3.5,11.0167186 3.5,13.502 L3.5,13.502 L3.5,15.002 L5,15.002 C5.38531359,15.002 5.70793776,15.2939709 5.74627789,15.6773722 L5.74627789,15.6773722 L6.42874067,22.502 L9.57125933,22.502 L10.2537221,15.6773722 C10.2920622,15.2939709 10.6146864,15.002 11,15.002 L11,15.002 L12.5,15.002 L12.5,13.502 C12.5,11.0167186 10.4852814,9.002 8,9.002 Z M16.004,21 C15.9932927,21.001 15.9905888,21.0009857 15.9878883,21.000957 C15.5774114,21.0043927 15.246,21.3384937 15.246,21.75 C15.246,22.1642136 15.5817864,22.5 15.996,22.5 C16.4102136,22.5 16.746,22.1642136 16.746,21.75 C16.746,21.3357864 16.4102136,21 15.996,21 L16.004,21 Z M21.25,12.752 L16.746,12.752 L16.7462535,19.6281189 C17.3863783,19.8544573 17.8935175,20.3622561 18.1189596,21.0028038 L21.25,21.002 C21.6642136,21.002 22,20.6662136 22,20.252 L22,20.252 L22,13.502 C22,13.0877864 21.6642136,12.752 21.25,12.752 L21.25,12.752 Z M7.996,0 C10.0670678,0 11.746,1.67893219 11.746,3.75 C11.746,5.82106781 10.0670678,7.5 7.996,7.5 C5.92493219,7.5 4.246,5.82106781 4.246,3.75 C4.246,1.67893219 5.92493219,0 7.996,0 Z M7.996,1.5 C6.75335931,1.5 5.746,2.50735931 5.746,3.75 C5.746,4.99264069 6.75335931,6 7.996,6 C9.23864069,6 10.246,4.99264069 10.246,3.75 C10.246,2.50735931 9.23864069,1.5 7.996,1.5 Z" id="Combined-Shape" transform="translate(12.750000, 12.001000) scale(-1, 1) translate(-12.750000, -12.001000) "></path>
        </g>
    </g>
</svg>