<?xml version="1.0" encoding="UTF-8"?>
<svg width="19px" height="24px" viewBox="0 0 19 24" version="1.1" xmlns="http://www.w3.org/2000/svg" xmlns:xlink="http://www.w3.org/1999/xlink">
    <title>Logos / OS-Systems / os-system-apple</title>
    <g id="4.DETTAGLIO" stroke="none" stroke-width="1" fill="none" fill-rule="evenodd">
        <g id="Group-2-Copy" transform="translate(-703.000000, -204.000000)">
            <g id="Group-9-Copy-10" transform="translate(388.000000, 176.000000)">
                <g id="Logos-/-OS-Systems-/-os-system-apple" transform="translate(313.000000, 28.000000)">
                    <g id="Group" fill="#166744" fill-rule="nonzero">
                        <g id="Bold">
                            <path d="M17.58,13.29 C17.5784103,11.7658261 18.2978229,10.3307094 19.52,9.42 C19.6275188,9.33565949 19.6958331,9.21098783 19.7090563,9.0749777 C19.7222795,8.93896756 19.6792593,8.80347171 19.59,8.7 C18.668125,7.6769862 17.3755715,7.06491354 16,7 L16,7 C14.31,6.84 12.7,8 11.84,8 C10.98,8 9.58,7 8.18,7 C6.29472713,7.05892399 4.58038635,8.10805493 3.67,9.76 C1.75,13.1 3.18,18 5,20.74 C5.91,22.06 7,23.55 8.44,23.5 C9.88,23.45 10.34,22.61 12.01,22.61 C13.68,22.61 14.15,23.5 15.61,23.47 C17.07,23.44 18.08,22.12 19,20.8 C19.5645421,19.9696149 20.0246719,19.0728657 20.37,18.13 C20.4546525,17.8977676 20.3569071,17.6385296 20.14,17.52 C18.5638562,16.6985298 17.5766746,15.0673664 17.58,13.29 Z" id="Shape"></path>
                            <path d="M15,4.17 C15.7310512,3.29958735 16.1592462,2.21506082 16.22,1.08 C16.2262073,0.926368944 16.1613849,0.778425 16.0442318,0.678844908 C15.9270788,0.579264817 15.7706243,0.539123372 15.62,0.57 C14.5320477,0.819880912 13.5495061,1.40381137 12.81,2.24 C12.0754256,3.07574231 11.6361818,4.12992742 11.56,5.24 C11.5564057,5.38347285 11.6146363,5.52157267 11.7198734,5.61915615 C11.8251105,5.71673962 11.9672061,5.7643968 12.11,5.75 C13.2390121,5.60940925 14.2722416,5.04452948 15,4.17 Z" id="Shape"></path>
                        </g>
                    </g>
                </g>
            </g>
        </g>
    </g>
</svg>