<?xml version="1.0" encoding="UTF-8"?>
<svg width="23px" height="22px" viewBox="0 0 23 22" version="1.1" xmlns="http://www.w3.org/2000/svg" xmlns:xlink="http://www.w3.org/1999/xlink">
    <title>Logos / OS-Systems / os-system-microsoft</title>
    <g id="4.DETTAGLIO" stroke="none" stroke-width="1" fill="none" fill-rule="evenodd">
        <g id="Group-2-Copy" transform="translate(-313.000000, -205.000000)">
            <g id="Group-9-Copy-9" transform="translate(0.000000, 176.000000)">
                <g id="Logos-/-OS-Systems-/-os-system-microsoft" transform="translate(313.000000, 28.000000)">
                    <g id="Group" transform="translate(0.000000, 0.500000)" fill="#166744" fill-rule="nonzero">
                        <g id="Bold">
                            <path d="M20.0953846,13.6275 C19.0083489,14.0511029 17.8593846,14.2780034 16.6984615,14.2983333 C15.3370652,14.3418587 14.0031125,13.8948976 12.9230769,13.0333333 C12.8029237,12.9344769 12.6433311,12.9040136 12.4971666,12.9520349 C12.351002,13.0000562 12.237345,13.1202936 12.1938462,13.2729167 L10.3476923,19.98125 C10.3153339,20.0807121 10.3153339,20.1884546 10.3476923,20.2879167 C10.5138462,20.7191667 13.1169231,21.99375 14.6123077,21.99375 C15.998148,21.949134 17.3622085,21.62358 18.6276923,21.0354167 C18.7570361,20.980534 18.8554678,20.8677713 18.8953846,20.72875 L20.7415385,14.17375 C20.7900923,14.0006023 20.740896,13.8138156 20.6142349,13.690409 C20.4875738,13.5670024 20.3049007,13.5278774 20.1415385,13.5891667 L20.0953846,13.6275 Z" id="Shape"></path>
                            <path d="M10.8369231,12.1420833 C9.70837985,11.3099802 8.37084143,10.8371151 6.98769231,10.78125 C5.64426453,10.8547408 4.32464617,11.1793902 3.09230769,11.7395833 C2.96296386,11.794466 2.86453222,11.9072287 2.82461538,12.04625 L0.923076923,18.7833333 C0.874604306,18.9597285 0.927383838,19.1493738 1.05900532,19.2717457 C1.1906268,19.3941177 1.37798922,19.4277387 1.54153846,19.3583333 C2.60259878,18.8736899 3.74299659,18.6037222 4.90153846,18.5629167 C6.16546147,18.5924008 7.38753489,19.0388128 8.39076923,19.8375 C8.46768793,19.889113 8.55765831,19.9158007 8.64923077,19.9141667 C8.70113892,19.923659 8.75424569,19.923659 8.80615385,19.9141667 C8.94468117,19.8621948 9.05099505,19.7446994 9.09230769,19.5979167 L11.0769231,12.6883333 C11.1303385,12.4703367 11.0305049,12.2431113 10.8369231,12.1420833 Z" id="Shape"></path>
                            <path d="M3.86769231,9.73666667 C4.95799447,9.22532085 6.13364632,8.93889722 7.32923077,8.89333333 C8.54805473,8.94533547 9.72160893,9.38716466 10.6892308,10.1583333 C10.7661495,10.2099464 10.8561199,10.236634 10.9476923,10.235 C10.9996005,10.2444923 11.0527072,10.2444923 11.1046154,10.235 C11.2431427,10.1830282 11.3494566,10.0655327 11.3907692,9.91875 L13.3015385,3.12416667 C13.3075991,3.07966576 13.3075991,3.03450091 13.3015385,2.99 L13.3015385,2.99 C13.302482,2.82178986 13.2183976,2.66538457 13.08,2.57791667 C11.8912995,1.7087612 10.4723781,1.24339034 9.01846154,1.24582376 C7.74498103,1.30167864 6.4927459,1.60394342 5.32615385,2.13708333 C5.1947053,2.1939767 5.09591674,2.31068489 5.05846154,2.45333333 L3.21230769,9.16166667 C3.16383508,9.33806184 3.21661461,9.52770711 3.34823609,9.65007908 C3.47985757,9.77245104 3.66721999,9.80607207 3.83076923,9.73666667 L3.86769231,9.73666667 Z" id="Shape"></path>
                            <path d="M22.92,4.00583333 C22.7850069,3.8840224 22.5943792,3.8541494 22.4307692,3.92916667 C21.3526721,4.46016769 20.1804044,4.75382388 18.9876923,4.79166667 C17.6523254,4.80040781 16.3525446,4.34497681 15.2953846,3.49791667 C15.1754252,3.39949454 15.0156915,3.37065373 14.8707692,3.42125 C14.7229614,3.46984843 14.6085323,3.59224802 14.5661538,3.74708333 L12.6276923,10.5416667 C12.5982704,10.7481424 12.6753603,10.9555039 12.8307692,11.0879167 C14.0994352,11.9830171 15.5984086,12.4605714 17.1323077,12.4583412 C18.449666,12.4344257 19.7454718,12.1071025 20.9261538,11.5 C20.9863598,11.4704618 21.0398449,11.4279993 21.0830769,11.3754167 C21.1292542,11.323095 21.1639031,11.260961 21.1846154,11.1933333 L23.0307692,4.485 C23.0818435,4.31629405 23.0392626,4.13209703 22.92,4.00583333 Z" id="Shape"></path>
                        </g>
                    </g>
                </g>
            </g>
        </g>
    </g>
</svg>