<?xml version="1.0" encoding="UTF-8"?>
<svg width="24px" height="22px" viewBox="0 0 24 22" version="1.1" xmlns="http://www.w3.org/2000/svg" xmlns:xlink="http://www.w3.org/1999/xlink">
    <title>Internet-Networks-Servers / Wifi / wifi</title>
    <g id="4.DETTAGLIO" stroke="none" stroke-width="1" fill="none" fill-rule="evenodd">
        <g id="Group-2-Copy" transform="translate(-1089.000000, -205.000000)">
            <g id="Group-9-Copy-11" transform="translate(776.000000, 176.000000)">
                <g id="Internet-Networks-Servers-/-Wifi-/-wifi" transform="translate(313.000000, 28.000000)">
                    <g id="Group" fill="#166744" fill-rule="nonzero">
                        <g id="wifi">
                            <path d="M4.046,9.917 C3.5724216,10.4076073 3.57941606,11.1872393 4.06172047,11.6692709 C4.54402489,12.1513025 5.3236607,12.1578559 5.814,11.684 C9.23378109,8.27376949 14.7682189,8.27376949 18.188,11.684 C18.4223434,11.9185929 18.740412,12.050282 19.072,12.0500109 L19.072,12.0500109 C19.7514268,12.0528193 20.3065952,11.508353 20.3170026,10.829 C20.3170026,10.819 20.3170026,10.81 20.3170026,10.8 C20.3176803,10.4686267 20.18591,10.150722 19.951,9.917 C15.5549747,5.53457659 8.44202528,5.53457659 4.046,9.917 Z" id="Shape"></path>
                            <path d="M22.784,6.088 C16.8240277,0.142148927 7.1759723,0.142148927 1.216,6.088 C0.727780281,6.57621972 0.727780281,7.36778028 1.216,7.856 C1.70421972,8.34421972 2.49578028,8.34421972 2.984,7.856 C7.9671509,2.88566611 16.0328491,2.88566611 21.016,7.856 C21.3318228,8.17182278 21.7921445,8.29516562 22.2235665,8.17956646 C22.6549884,8.0639673 22.9919673,7.7269884 23.1075665,7.29556646 C23.2231656,6.86414451 23.0998228,6.40382278 22.784,6.088 Z" id="Shape"></path>
                            <path d="M14.383,12.033 C11.7589256,11.1173482 8.84235425,11.7819179 6.874,13.744 C6.51653271,14.1013729 6.40947879,14.6388601 6.60273907,15.105924 C6.79599934,15.5729879 7.25153177,15.87769 7.757,15.8780001 L7.757,15.8780001 C8.08875382,15.8781275 8.40688344,15.7460533 8.641,15.511 C10.4303442,13.7343686 13.2963392,13.6663084 15.168,15.356 C15.23,15.411 15.299,15.456 15.358,15.511 L15.358,15.511 L15.358,15.511 C15.5918735,15.7442173 15.9087166,15.8751264 16.239,15.875 L16.239,15.875 C16.7444335,15.8741197 17.1996819,15.5691812 17.3928519,15.1021167 C17.5860219,14.6350523 17.4791582,14.0976337 17.122,13.74 C16.3501935,12.9707398 15.4135876,12.3870281 14.383,12.033 L14.383,12.033 Z" id="Shape"></path>
                            <circle id="Oval" cx="12" cy="19.871" r="2.5"></circle>
                        </g>
                    </g>
                </g>
            </g>
        </g>
    </g>
</svg>