
<svg width="24px" height="24px" viewBox="0 0 24 24" version="1.1" xmlns="http://www.w3.org/2000/svg" xmlns:xlink="http://www.w3.org/1999/xlink">
    <g id="symbols" stroke="none" stroke-width="1" fill="none" fill-rule="evenodd">
        <g id="#/icon/baby" fill="#ffffff">
            <path d="M13.8631557,0.835187196 C14.0922505,0.490095245 14.5577209,0.396060964 14.9028128,0.625155749 C16.6106939,1.75895983 17.4804719,3.76295244 17.1965474,5.74245688 C18.9932158,6.87449099 20.4120522,8.58726535 21.1659022,10.6681129 L21.1659022,10.6681129 L21.3495727,10.7029652 C22.8653193,11.0345481 24,12.3847646 24,14 C24,15.6798448 22.7727294,17.0730452 21.1659022,17.3318871 C19.7749586,21.1712999 16.1200912,23.7576198 12,23.7576198 C7.87990878,23.7576198 4.22504137,21.1712999 2.83409776,17.3318871 C1.22727062,17.0730452 0,15.6798448 0,14 C0,12.3201552 1.22727062,10.9269548 2.83409776,10.6681129 C4.22504137,6.8287001 7.87990878,4.24238018 12,4.24238018 C13.3166256,4.24238018 14.5857425,4.50649524 15.7486525,4.99121722 C15.7468179,3.76238457 15.1380889,2.58179618 14.0731872,1.87484425 C13.7280952,1.64574947 13.634061,1.18027915 13.8631557,0.835187196 Z M16.7446589,7.24324497 L16.6503231,7.43472314 C15.7338634,9.18636048 13.8864608,10.3017679 11.8578615,10.2471647 C9.85335768,10.19321 8.08696917,9.00804528 7.25329158,7.24482219 C5.78561167,8.27694234 4.65574256,9.78641907 4.10658333,11.593115 C4.01055449,11.9090433 3.71920025,12.125 3.389,12.125 L3.389,12.125 L3.22846985,12.1306412 C2.26142049,12.2053938 1.5,13.0137772 1.5,14 C1.5,15.0355339 2.33946609,15.875 3.375,15.875 L3.375,15.875 L3.49741336,15.8828393 C3.78153421,15.9242246 4.02122436,16.1260599 4.10658333,16.406885 C5.16290061,19.8820959 8.36779725,22.2576198 12,22.2576198 C15.6322028,22.2576198 18.8370994,19.8820959 19.8934167,16.406885 C19.9894455,16.0909567 20.2807997,15.875 20.611,15.875 L20.611,15.875 L20.7715301,15.8693588 C21.7385795,15.7946062 22.5,14.9862228 22.5,14 C22.5,12.9644661 21.6605339,12.125 20.625,12.125 L20.625,12.125 L20.5025866,12.1171607 C20.2184658,12.0757754 19.9787756,11.8739401 19.8934167,11.593115 C19.3441317,9.78600536 18.2138708,8.27625105 16.7446589,7.24324497 Z M14.795,17.249981 C15.0711529,16.9412538 15.5452918,16.9148471 15.854019,17.191 C16.1627462,17.4671529 16.1891529,17.9412918 15.913,18.250019 C14.9170354,19.3634651 13.4938902,19.999886 12,19.999886 C10.5061098,19.999886 9.08296462,19.3634651 8.087,18.250019 C7.81084713,17.9412918 7.83725383,17.4671529 8.145981,17.191 C8.45470818,16.9148471 8.92884713,16.9412538 9.205,17.249981 C9.9164033,18.0452997 10.9329356,18.499886 12,18.499886 C13.0670644,18.499886 14.0835967,18.0452997 14.795,17.249981 Z M8.625,11.75 L8.74758114,11.7566013 C9.31123905,11.8176801 9.75,12.295101 9.75,12.875 C9.75,13.4963203 9.24632034,14 8.625,14 L8.625,14 C8.00367966,14 7.5,13.4963203 7.5,12.875 C7.5,12.8624788 7.50030683,12.8500293 7.50091339,12.8376586 C7.5202491,12.2336804 8.01613974,11.75 8.625,11.75 L8.625,11.75 Z M15.375,11.75 L15.4975811,11.7566013 C16.0612391,11.8176801 16.5,12.295101 16.5,12.875 C16.5,13.4963203 15.9963203,14 15.375,14 L15.375,14 C14.7536797,14 14.25,13.4963203 14.25,12.875 C14.25,12.8624788 14.2503068,12.8500293 14.2509134,12.8376586 C14.2702491,12.2336804 14.7661397,11.75 15.375,11.75 L15.375,11.75 Z M12,5.74238018 C10.783366,5.74238018 9.61467427,6.00890592 8.55861221,6.49401003 C9.13266907,7.8135198 10.4254685,8.70806609 11.898222,8.74770779 C13.4396797,8.78919878 14.8346673,7.88491316 15.438457,6.49386404 C14.3838473,6.00856886 13.2158645,5.74238018 12,5.74238018 Z" id="Combined-Shape"></path>
        </g>
    </g>
</svg>