<svg width="24px" height="22px" viewBox="0 0 24 22" version="1.1" xmlns="http://www.w3.org/2000/svg" xmlns:xlink="http://www.w3.org/1999/xlink">
    <g id="symbols" stroke="none" stroke-width="1" fill="none" fill-rule="evenodd">
        <g id="#/icon/duration" transform="translate(0.000000, -1.000000)" fill="#ffffff">
            <path d="M7.61112344,1.85822118 C12.6169799,-0.164276101 18.2518935,1.85173125 20.9046672,6.37338093 L21.8306914,4.07962178 C21.9858586,3.69556966 22.4229821,3.51002171 22.8070343,3.66518884 C23.1910864,3.82035597 23.3766343,4.25747955 23.2214672,4.64153167 L23.2214672,4.64153167 L21.6146392,8.61857054 C21.4594721,9.00262267 21.0223485,9.18817062 20.6382964,9.03300349 L20.6382964,9.03300349 L16.8532315,7.50373801 C16.4691794,7.34857088 16.2836314,6.9114473 16.4387985,6.52739518 C16.5939657,6.14334305 17.0310893,5.9577951 17.4151414,6.11296223 L17.4151414,6.11296223 L19.5050672,6.95701452 C17.1807569,3.19112811 12.414475,1.5353433 8.17303333,3.24899696 C3.43639042,5.16272491 1.1479657,10.5539157 3.06169366,15.2905586 C4.97542162,20.0272015 10.3666124,22.3156262 15.1032553,20.4018983 C15.4873074,20.2467311 15.924431,20.4322791 16.0795981,20.8163312 C16.2347653,21.2003833 16.0492173,21.6375069 15.6651652,21.792674 C10.160418,24.0167363 3.8949801,21.3572156 1.67091788,15.8524685 C-0.55314434,10.3477213 2.10637628,4.08228339 7.61112344,1.85822118 Z M12,4.98562702 C12.4142136,4.98562702 12.75,5.32141346 12.75,5.73562702 L12.75,5.73562702 L12.7501717,9.87808998 C13.6239763,10.1870158 14.25,11.0204 14.25,12 C14.25,12.3471392 14.1713859,12.6759171 14.0309896,12.9695017 L16.2803301,15.2196699 C16.5732233,15.5125631 16.5732233,15.9874369 16.2803301,16.2803301 C15.9874369,16.5732233 15.5125631,16.5732233 15.2196699,16.2803301 L15.2196699,16.2803301 L12.9704968,14.0305134 C12.6766601,14.1712081 12.3475315,14.25 12,14.25 C10.7573593,14.25 9.75,13.2426407 9.75,12 C9.75,11.0204 10.3760237,10.1870158 11.2498283,9.87808998 L11.25,5.73562702 C11.25,5.32141346 11.5857864,4.98562702 12,4.98562702 Z M12,11.25 C11.5857864,11.25 11.25,11.5857864 11.25,12 C11.25,12.4142136 11.5857864,12.75 12,12.75 C12.4142136,12.75 12.75,12.4142136 12.75,12 C12.75,11.5857864 12.4142136,11.25 12,11.25 Z" id="Combined-Shape"></path>
        </g>
    </g>
</svg>