<svg width="24px" height="24px" viewBox="0 0 24 24" version="1.1" xmlns="http://www.w3.org/2000/svg" xmlns:xlink="http://www.w3.org/1999/xlink">
    <g id="symbols" stroke="none" stroke-width="1" fill="none" fill-rule="evenodd">
        <g id="#/icon/walk" fill="#ffffff">
            <path d="M11.5183912,6.74804694 C13.5183837,6.77042475 15.4202829,7.61804535 16.7674663,9.08325105 C17.0803399,9.41479523 17.732587,9.46858342 18.783542,9.11691787 C19.3500291,8.92694916 19.9688135,8.97010023 20.5034508,9.23685609 C21.038088,9.50361195 21.4446694,9.97206443 21.633542,10.5389179 L21.633542,10.5389179 L21.6790431,10.6940377 C21.968077,11.8268036 21.3363754,13.0067388 20.209716,13.3826639 C17.3016514,14.3499538 15.0952653,13.7629369 13.6394431,12.3231165 L13.6394431,12.3231165 L13.2476055,13.792169 L13.5387053,13.8890009 C15.1045013,14.4146891 16.3336774,15.6434337 16.8605818,17.2110373 L16.8605818,17.2110373 L17.9315377,20.4303081 C18.1400403,21.1570757 17.9698348,21.9452744 17.4699032,22.5228758 C16.9315153,23.1449081 16.0965661,23.4235181 15.2925261,23.2494338 C14.4884861,23.0753494 13.8435547,22.4763275 13.6185569,21.7123788 L13.6185569,21.7123788 L12.5922514,18.6364501 C12.5164152,18.4113493 12.3398214,18.2345692 12.1181015,18.1596032 L12.1181015,18.1596032 L12.0903147,18.1503527 L11.1756969,21.5801692 C10.9686011,22.3571136 10.3627417,22.9645555 9.5863402,23.1736774 C8.80993869,23.3827993 7.9809489,23.1618307 7.41164326,22.5940082 C6.84233762,22.0261857 6.6192072,21.1977752 6.82631889,20.4207714 L6.82631889,20.4207714 L8.90330475,12.6312805 L6.66729819,14.4952243 C5.71030629,15.2288531 4.34510037,15.0776218 3.57187632,14.1523277 C2.79865227,13.2270336 2.89233888,11.8566756 3.80852023,11.0241188 L3.80852023,11.0241188 L6.9606079,8.39421303 C8.23856607,7.33204782 9.84746949,6.74975919 11.5183912,6.74804694 Z M0.788487526,20.0128292 C0.919473356,19.6198717 1.34421334,19.4075017 1.73717082,19.5384875 C2.13012831,19.6694734 2.3424983,20.0942133 2.21151247,20.4871708 L2.21151247,20.4871708 L1.46151247,22.7371708 C1.33052664,23.1301283 0.905786664,23.3424983 0.512829175,23.2115125 C0.119871687,23.0805266 -0.092498303,22.6557867 0.0384875265,22.2628292 L0.0384875265,22.2628292 Z M3.78848753,20.0128292 C3.91947336,19.6198717 4.34421334,19.4075017 4.73717082,19.5384875 C5.13012831,19.6694734 5.3424983,20.0942133 5.21151247,20.4871708 L5.21151247,20.4871708 L4.46151247,22.7371708 C4.33052664,23.1301283 3.90578666,23.3424983 3.51282918,23.2115125 C3.11987169,23.0805266 2.9075017,22.6557867 3.03848753,22.2628292 L3.03848753,22.2628292 Z M22.2628292,19.5384875 C22.6557867,19.4075017 23.0805266,19.6198717 23.2115125,20.0128292 L23.2115125,20.0128292 L23.9615125,22.2628292 C24.0924983,22.6557867 23.8801283,23.0805266 23.4871708,23.2115125 C23.0942133,23.3424983 22.6694734,23.1301283 22.5384875,22.7371708 L22.5384875,22.7371708 L21.7884875,20.4871708 C21.6575017,20.0942133 21.8698717,19.6694734 22.2628292,19.5384875 Z M19.2628292,19.5384875 C19.6557867,19.4075017 20.0805266,19.6198717 20.2115125,20.0128292 L20.2115125,20.0128292 L20.9615125,22.2628292 C21.0924983,22.6557867 20.8801283,23.0805266 20.4871708,23.2115125 C20.0942133,23.3424983 19.6694734,23.1301283 19.5384875,22.7371708 L19.5384875,22.7371708 L18.7884875,20.4871708 C18.6575017,20.0942133 18.8698717,19.6694734 19.2628292,19.5384875 Z M11.5107938,8.24799958 C10.1987491,8.24938824 8.92841968,8.70914138 7.92047977,9.54688123 L7.92047977,9.54688123 L4.79370181,12.1547757 C4.49638205,12.4252595 4.46515317,12.8820455 4.72289452,13.1904768 C4.98063587,13.4989082 5.43570452,13.5493186 5.73068174,13.3239841 L5.73068174,13.3239841 L8.88980502,10.689888 C9.19199604,10.4475643 9.52826938,10.2511274 9.88777367,10.1069162 C10.4609178,9.87700575 11.0507824,10.3995379 10.8916811,10.9962286 L10.8916811,10.9962286 L8.27569694,20.8071692 C8.2066265,21.066295 8.28104477,21.3425858 8.4709191,21.5319655 C8.66079343,21.7213452 8.9372774,21.7950424 9.19622216,21.7252963 C9.45516693,21.6555501 9.65723263,21.4529566 9.7263238,21.193753 L9.7263238,21.193753 L10.8463238,16.993753 C10.9576664,16.5762183 11.3978961,16.3389036 11.8078985,16.4753968 L11.8078985,16.4753968 L12.5951993,16.7375042 C13.2637564,16.9635252 13.7884326,17.4887548 14.0144431,18.1596212 L14.0144431,18.1596212 L15.0493232,21.2626932 C15.1269491,21.5257001 15.3419262,21.7253741 15.6099396,21.7834022 C15.8779529,21.8414303 16.1562693,21.7485603 16.3357319,21.5412162 C16.5151946,21.3338721 16.5671891,21.0451137 16.4624182,20.7629627 L16.4624182,20.7629627 L15.4380847,17.6869549 C15.0614879,16.5665411 14.1818406,15.6872025 13.0632745,15.3116608 L13.0632745,15.3116608 L12.1042745,14.9926608 C11.7279363,14.8674763 11.5141207,14.4709266 11.6163349,14.0877115 L11.6163349,14.0877115 L12.4853349,10.8297115 C12.6114895,10.3567403 13.1495748,10.129431 13.5766134,10.3687106 C13.9472609,10.5763929 14.285882,10.8366521 14.589242,11.1490134 C15.6627566,12.285597 17.312855,12.7654249 19.7356176,11.9595581 C20.1278485,11.8286848 20.3401327,11.4050713 20.2102872,11.0125703 L20.2102872,11.0125703 L20.1640173,10.9035449 C20.091374,10.7641538 19.9762021,10.6501322 19.8337609,10.5790615 C19.6555485,10.4901429 19.449287,10.4757592 19.2599913,10.5392384 C17.7135822,11.0566907 16.4705859,10.9541858 15.6699165,10.1056454 C14.5962126,8.9379518 13.0878098,8.26570098 11.5107938,8.24799958 Z M12.75,0.733 C14.4068542,0.733 15.75,2.07614575 15.75,3.733 C15.75,5.38985425 14.4068542,6.733 12.75,6.733 C11.0931458,6.733 9.75,5.38985425 9.75,3.733 C9.75,2.07614575 11.0931458,0.733 12.75,0.733 Z M12.75,2.233 C11.9215729,2.233 11.25,2.90457288 11.25,3.733 C11.25,4.56142712 11.9215729,5.233 12.75,5.233 C13.5784271,5.233 14.25,4.56142712 14.25,3.733 C14.25,2.90457288 13.5784271,2.233 12.75,2.233 Z" id="Combined-Shape"></path>
        </g>
    </g>
</svg>