<?xml version="1.0" encoding="utf-8"?>
<!-- Generator: Adobe Illustrator 24.1.3, SVG Export Plug-In . SVG Version: 6.00 Build 0)  -->
<svg version="1.1" id="Livello_1" xmlns="http://www.w3.org/2000/svg" xmlns:xlink="http://www.w3.org/1999/xlink" x="0px" y="0px"
	 viewBox="0 0 101.6 80.6" enable-background="new 0 0 101.6 80.6" xml:space="preserve">
<g>
	<path fill="#004275" d="M62,39.7c0.4,1,0.8,1.9,1.1,2.8c0.4,1,0.7,2.1,1,3.1c0.3,1.2-0.2,2.2-1.2,2.9c-0.8,0.5-1.6,1-2.5,1.4
		c-1,0.5-2.1,0.8-3.1,1.2c-2.2-3.7-5.7-4.4-9.7-4.5c0.6,1.3,1.2,2.4,1.8,3.7c-1.3-0.7-2.7-1.3-4.2-1.5c-1.5-0.2-3-0.1-4.5,0.3
		c-0.1-0.5-0.2-0.9-0.3-1.4c-1.2,0.4-2.4,0.7-3.6,1.1c-1.7,0.5-3.4,1-5.2,0.8c-3.1-0.2-5-1.7-5.9-4.7c-0.3-0.9-0.4-1.9-0.7-3
		c-2.8,0.6-5.7,1.2-8.6,1.8c0.2,3.5,2.8,5.9,6.2,6c0.6,0,1.2,0.1,1.7,0.2c0.3,0.1,0.6,0.4,0.6,0.7c0,0.3-0.2,0.7-0.5,0.8
		c-0.7,0.3-1.4,0.5-2.2,0.6c-1.6,0.1-3.1,0.2-4.7,0.2c-3.3,0.1-6.6,0.2-9.9-0.2C5.9,52,4.1,51.7,2.4,51c-0.6-0.3-1.2-0.6-1.7-1
		c-0.8-0.6-0.9-1.5-0.2-2.3c0.5-0.6,1-1.1,1.6-1.4c1.9-1.2,3.9-1.9,6-2.4c1.7-0.5,3.5-0.9,5.2-1.3c0.4-0.1,0.5-0.2,0.6-0.6
		c0.7-3.7,1.6-7.2,3.4-10.6c0.1-0.2,0.2-0.3,0.3-0.5c-0.9,3.6-1.6,7.2-1.5,11c3-0.4,5.9-0.8,8.8-1.2c0.1-9.3,3-18,6.3-26.5
		c-0.3,1.7-0.6,3.4-0.9,5.2c-0.8,5.4-1.5,10.9-1.3,16.4c0.1,1.5,0.3,3,0.5,4.5c3.4-0.2,6.7-0.4,10-0.7C38.7,29,40.8,18.9,46.2,9.6
		c-0.2,1.1-0.3,2.1-0.5,3.2c-0.9,5.8-1.4,11.7-1.1,17.6c0.2,2.9,0.6,5.7,0.9,8.6c0,0.4,0.2,0.5,0.6,0.5c2.8,0,5.5,0,8.3,0
		c0.1,0,0.2,0,0.3,0c-3,0.1-6,0.2-9.1,0.4c0.5,2,1,3.8,1.5,5.8c2.6-0.5,5.2-0.9,7.3-2.4c1.7-1.2,2.6-2.9,2.6-4.9
		c0-1.5-0.2-2.9-0.2-4.4c-0.1-3.5,0.4-6.9,1.3-10.2c0.8-3,1.8-6,2.7-9c0-0.1,0.1-0.2,0.2-0.3c-0.1,0.7-0.3,1.3-0.4,2
		c-1.1,6.2-1.5,12.5-0.1,18.7c0.3,1.2,0.7,2.5,1,3.7c0.1,0.4,0.3,0.6,0.8,0.6c7.3,0,14.4,0.8,21.5,2.6c4.2,1.1,8.3,2.5,11.9,4.9
		c1.4,0.9,2.7,2,3.8,3.3c1.4,1.7,2.1,3.6,1.9,5.9c-0.2,2.1-0.8,4.1-1.9,5.9c-0.1,0.2-0.2,0.3-0.4,0.5c-0.3-0.4-0.7-0.7-1-1.1
		c-2.5-2.6-5.5-3.3-8.9-2.2c-2.1,0.7-4,1.9-5.9,2.9c-0.6,0.3-1.1,0.5-1.8,0.5c-5.7,0-11.3,0-17,0c-0.1,0-0.2,0-0.4-0.1
		c2.1-0.5,4.1-1.3,6-2.2c3.9-1.9,7.8-3.8,11.7-5.7c1-0.5,2-0.8,3-1.2c1.8-0.6,3.6-0.4,5.3,0.5c0.7,0.4,1.4,0.8,2.2,1.3
		c0.6-1.2,0.6-2.5,0.2-3.7c-0.7-1.9-2.1-3.3-3.7-4.4c-2.5-1.8-5.4-3-8.3-4c-5.3-1.7-10.7-2.7-16.2-3.2C63.6,39.8,62.8,39.7,62,39.7z
		 M39.6,40.3c-3.2,0.3-6.4,0.7-9.6,1c1.5,5.6,5.6,7,10.2,5.5C40,44.6,39.8,42.5,39.6,40.3z M13.4,44.6c-1.4,0.7-2.7,1.3-4,2
		c-0.5,0.2-0.9,0.6-1.2,1c-0.5,0.5-0.4,1,0.1,1.3c1.3,0.8,2.8,1,4.3,0.8c0.2,0,0.4-0.3,0.4-0.5C13.2,47.8,13.3,46.3,13.4,44.6z"/>
	<path fill="#004275" d="M62.4,68.9c0,3.7,0,7.5,0,11.2c-1.1,0-2.2,0-3.3,0c0-5,0-10,0-15.1c0.2,0,0.3,0,0.5,0c1.4,0,2.7,0,4.1,0
		c0.4,0,0.5,0.1,0.7,0.5c1.1,3.1,2.2,6.2,3.3,9.5c0.1-0.3,0.2-0.4,0.2-0.6c1-3,2.1-5.9,3.1-8.9c0.1-0.3,0.3-0.5,0.6-0.5
		c1.5,0,3,0,4.5,0c0,5.1,0,10.1,0,15.1c-1.1,0-2.2,0-3.3,0c0-3.8,0-7.5,0-11.3c0,0-0.1,0-0.1,0c-0.1,0.1-0.1,0.3-0.2,0.4
		c-1.2,3.5-2.4,7-3.6,10.5c-0.1,0.3-0.3,0.5-0.6,0.5c-0.5,0-1.1,0-1.6,0c-0.4,0-0.5-0.1-0.6-0.5c-1.1-3.5-2.3-6.9-3.4-10.4
		c0-0.1-0.1-0.3-0.2-0.4C62.5,68.9,62.4,68.9,62.4,68.9z"/>
	<path fill="#004275" d="M41,49.9c3.7-0.2,7.2,0.2,10,2.9c2.7,2.7,3.3,6.1,3.2,9.8c-1.3,0-2.5,0-3.7,0c-1.5,0-3,0-4.6,0
		c-0.5,0-0.7-0.2-0.9-0.6c-1.7-3.4-2.9-7-3.7-10.6c-0.1-0.5-0.2-1-0.3-1.4C41,50,41,49.9,41,49.9z"/>
	<path fill="#004275" d="M89.7,65.1c0,0.1,0,0.2,0,0.3c0,0.9,0,1.8,0,2.7c-2.3,0-4.6,0-6.9,0c0,1,0,1.9,0,2.8c2.2,0,4.3,0,6.5,0
		c0,1,0,2,0,3.1c-2.2,0-4.3,0-6.5,0c0,1.1,0,2.1,0,3.1c2.4,0,4.8,0,7.3,0c0,1,0,2,0,3c-3.5,0-7.1,0-10.6,0c0-5,0-10,0-15.1
		C82.8,65.1,86.2,65.1,89.7,65.1z"/>
	<path fill="#004275" d="M74.7,57.1c-2.2,1.1-4.4,2.1-6.5,3.2c-2.1,1.1-4.4,1.9-6.7,2.1c-2,0.2-4,0.2-6,0.3
		c0.4-4.6-1.4-8.3-4.3-11.5C58.5,54.9,66.1,57.7,74.7,57.1z"/>
	<path fill="#004275" d="M31.9,11.5c-2.1,2.7-4.6,4.7-7.2,6.8c2.3-3,4.5-6,6.7-8.9c1.4-1.7,3-3.2,4.8-4.5c0.2-0.1,0.3-0.2,0.6-0.4
		c0.4,5.9,0.7,11.7,1.1,17.5C34.9,19,33.2,15.4,31.9,11.5z"/>
	<path fill="#004275" d="M61.4,12.1c-2.1,2.7-4.6,4.7-7.3,6.9c0.8-1.1,1.6-2,2.3-3c1.8-2.5,3.6-5.1,5.7-7.4c1.2-1.3,2.5-2.5,4.1-3.6
		c0.4,5.9,0.7,11.7,1.1,17.5C64.4,19.6,62.7,16,61.4,12.1z"/>
	<path fill="#004275" d="M52.7,17.6c-1.5-1.5-2.7-3.2-3.6-5c-0.9-1.8-1.6-3.6-2.5-5.5c-1.9,2.5-4.4,4.5-6.9,6.4
		c0.3-0.3,0.6-0.7,0.9-1c1.7-2.2,3.4-4.5,5.1-6.7c1.6-2.1,3.5-4,5.6-5.6c0.1-0.1,0.2-0.1,0.4-0.3C51.9,5.9,52.3,11.7,52.7,17.6z"/>
	<path fill="#004275" d="M38.3,66.6c-0.4,0.3-0.8,0.6-1.2,0.9c-0.6-0.9-1.5-1.4-2.5-1.5c-0.8-0.1-1.6,0-2.4,0.4
		c-1.8,1-2,3.5-0.3,4.7c0.7,0.5,1.6,0.7,2.4,1c0.6,0.2,1.3,0.4,2,0.7c3.1,1.3,2.7,5.3,0.8,6.8c-2.3,1.8-6.4,1.2-8.1-1.2
		c0.4-0.3,0.8-0.6,1.3-0.9c0.6,1,1.5,1.7,2.7,1.8c0.9,0.1,1.8,0.1,2.7-0.4c1-0.6,1.6-1.4,1.5-2.6c0-1.1-0.6-1.9-1.6-2.3
		c-0.8-0.3-1.5-0.6-2.3-0.9c-0.5-0.2-1.1-0.4-1.6-0.6c-1.6-0.7-2.3-2-2.3-3.7c0-1.7,0.8-2.9,2.3-3.6c2.2-1,5-0.6,6.4,1.1
		C38.2,66.4,38.2,66.5,38.3,66.6z"/>
	<path fill="#004275" d="M16,78.2c0.7-1.8,1.3-3.5,2-5.3c0.9-2.4,1.8-4.8,2.6-7.2c0.2-0.5,0.4-0.8,1-0.7c0.2,0,0.4,0,0.7,0
		c-0.3,0.8-0.6,1.6-0.9,2.4c-1.6,4.1-3.1,8.2-4.6,12.3c-0.2,0.6-0.5,0.5-1,0.5c-0.4,0-0.7-0.1-0.9-0.5c-1.7-4.7-3.5-9.5-5.3-14.2
		c0-0.1-0.1-0.2-0.1-0.4c0.4,0,0.8,0,1.2,0c0.2,0,0.3,0.3,0.4,0.5c1.5,4,2.9,8,4.4,11.9c0.1,0.2,0.2,0.5,0.3,0.7
		C15.9,78.2,15.9,78.2,16,78.2z"/>
	<path fill="#004275" d="M57.2,65.1c0,0.4,0,0.8,0,1.2c-1.7,0-3.4,0-5.1,0c0,4.6,0,9.2,0,13.9c-0.5,0-0.9,0-1.4,0
		c0-4.6,0-9.2,0-13.8c-1.8,0-3.5,0-5.2,0c0-0.4,0-0.8,0-1.2C49.4,65.1,53.3,65.1,57.2,65.1z"/>
	<path fill="#004275" d="M24.4,65.1c0.4,0,0.8,0,1.3,0c0,5,0,10,0,15.1c-0.4,0-0.8,0-1.3,0C24.4,75.2,24.4,70.1,24.4,65.1z"/>
	<path fill="#004275" d="M43.1,80.2c-0.4,0-0.8,0-1.3,0c0-5,0-10,0-15.1c0.4,0,0.8,0,1.3,0C43.1,70.1,43.1,75.1,43.1,80.2z"/>
</g>
</svg>
